<svg class="qodef-svg" preserveAspectRatio="none" version="1.1" xmlns="http://www.w3.org/2000/svg"
     xmlns:xlink="http://www.w3.org/1999/xlink" x="0px" y="0px"
     viewBox="0 0 744 516" enable-background="new 0 0 744 516" xml:space="preserve">
<g>
	<path fill="#203c58" d="M730.8,504.3v-0.1c-0.1,0-0.1,0.1-0.2,0.1C730.6,504.3,730.7,504.3,730.8,504.3z"/>
    <path fill="#203c58" d="M738.8,108.1c0.1-1.2,0.3,0.4,0.4,0.4c0-0.5,0.2-0.6,0.3-1.1c-0.3,0.1-0.6-0.1-0.7-0.4
		C738.8,107.5,738.6,107.9,738.8,108.1z"/>
    <path fill="#203c58" d="M743.9,226.2c-0.5-0.3-0.2,1.3-0.6,1.2c0.2-5.2-1.3-9.4-0.6-13.3c-0.5-2.5,0.1-5.6-1.2-7.1
		c-0.2,0.7-0.2,2.1-0.9,1.6c-1.2-8.2,0.2-19.5-0.3-25.1c0,0.3,0,0.8-0.2,0.8c0-2,0.6-5.6-0.3-6.3c0.5-2.7,0-5.2,0.2-7.1
		c-0.2,1-1.4-0.3-1.5-0.4c0.6,0.3,0.2-1.7,0.9-1.2c0.8-3.8,1.3-7.8,1.4-12.2c0-0.9-0.5-1.6,0-2.4c-0.2-1-0.6,0.4-0.6-0.4
		c0.5-1.8-0.1-1.9,0.2-3.9c-1.1,1.5-1.2,8-1.1,10.2c-0.5-0.3-0.6,0.4-0.9,0.8c0.2,3-0.7,4.5-1.2,5.9c0-0.7,0-1.3,0-2
		c-0.6-0.1,0,0.5-0.2,1.6c-0.2-0.5-0.4-0.5-0.6,0c0.4-1-0.1-1.7,0-3.1c0.3-0.9,1.5-1.3,1.1-2.7c-0.1,0.5-0.2,0.9-0.3,1.2
		c0-2.1,0-0.3-0.5-0.4c0.2-1.3-0.2-0.9-0.3-1.5c0-0.1,0-0.3,0-0.4c0.8-0.9,0.9-3.3,1.5-4.7c-0.3-1.4-0.3-5.9-0.8-9
		c0.4,1,0.7-0.4,0.9-1.2c-1-1.5-0.3-3.4-0.8-5.1c-0.1,0.6-0.2,1.2-0.6,1.2c-0.2-2.4,1-2.1,0.5-4.3c0.2,0,0.2,0.5,0.5,0.4
		c0.2-3.3,0.8-4.3,1.7-6.3c-0.1,0.6-0.5,0.3-0.3,1.6c0.2,0,0.3-0.2,0.5-0.4c-0.2,1.2,0.2,1,0.3,1.6c-0.5-0.4-0.3,0.9-0.3,1.6
		c0.4,0,0.5-0.7,0.6,0.4c-0.3,3.3-0.9,7.8-1.4,11c0.5,2.6,1,0.7,1.8,0c0.1-1.3,0-2-0.3-2.4c0.9-4.2-0.3-12.2,1.2-16.9
		c-0.9-3.7-0.6-4.8-0.5-9c-0.3-0.4-0.6-0.7-0.8-1.6c0.3,0.2,0.3,1.1,0.8,0.8c0-0.7,0-1.3,0-2c-0.6,0.1-0.7-1.1-0.8-2.4
		c-1.3,0.3-1.6,2.2-1.2,3.9c-0.3-0.5-0.6-0.8-0.6-2c0.1-0.4,0.3-0.8,0.5-1.2c-0.1-1.2-0.4-2.1-0.5-3.5c-0.4,0.1-0.5,0.7-0.6-0.4
		c0.2,0,0.4,0,0.6,0c-0.3-2.2,0-4.1-0.6-3.5c0.4-1,1-7.4,0.2-5.9c-0.1-3.4-0.1-2.7-0.2-5.5c0.5,0.9,0.2-2.1,0.2-3.5
		c0.9-1.4,0.5-5.4,0.8-7.8c-0.4,0.1-0.5-0.6-0.6-1.2c0.4-4.5,1.3-8.3,0.6-13.7c0.1-0.1,0.3,0,0.3-0.4c-1.5-0.2-1.3,4.1-2,6.3
		c0.9,0-0.3,6,0.9,6.3c0,0.9,0,1.8,0,2.7c-0.4-0.3-0.3,0.8-0.6,0.8c0.2,3.3-0.4,5.7-0.3,8.2c-0.2-0.3,0-1.9-0.5-1.6
		c0.1,0.9,0,4.3,0.5,2c-0.2,2.3-0.2,2.9-0.6,4.7c0.2,0.1,0.4-0.1,0.5,0.4c-0.7,0.5-0.5,2.9-0.6,3.9c-0.2,0-0.1-0.7-0.3-0.8
		c0.1,3.2-0.4,3.7-0.3,5.9c-1,0.2-1.5,3-2.6,3.9c0-0.7,0-1.2-0.2-1.6c0.2,0,0.4,0,0.6,0c-0.6-5.2-0.1-10.9,0.2-15.7
		c0.3,0.4,0.2,1.1,0.6,1.3c0-1-0.2-1.7-0.5-2c0.1-1.7,0.2-3.3,0.2-4.7c0.5-0.5,0.6-1.8,0.9-2.7c-1-1.7-0.1-4.7-0.5-6.3
		c0.4,0.2,0.5-0.2,0.4-0.6c0.1,0,0.1,0.1,0.2,0.2c0.1-0.7-0.1-0.8-0.2-1c0.1,0.1,0.2,0.4,0.5,0.3c0.3-1.7,0.7-3.4,1.5-3.9
		c-0.3-0.6-0.4-1.8-0.8-2.4c0.3-0.1,0.3-1,0.3-2c-0.2-1.1-0.5-0.1-0.8-1.6c0-1.7-0.1-3.5,0.3-4.3c0.6,0.1,0.7,1.4,0.9,2.4
		c0.5-0.3,0.6,0.4,0.9,0.4c0.3-2.1,0.5-5.4,0.5-8.2c0.2,0,0.2,0.5,0.5,0.4c0.1-1.9,0-3.4-0.6-3.5c0,0.5,0,1.1-0.2,1.2
		c-0.8-1.8,0.2-4.2-0.2-5.9c0,0.4-0.3,0.9-0.3,0.4c0.3-0.2,0-2.4,0.5-1.2c0.3-4.4,0.1-10.7-1.1-7.8c-0.8-2.1,0.7-8.8-0.4-9.8
		c0,0.2-0.9,2.4-0.2,3.1c-0.3,0.9-0.8,1.1-0.9,2.4c0.4-0.6,0.7,1,0.3,1.2c-0.1-1.1-1.4-0.3-1.7-0.8c0.4,1.1,0,1.1-0.5,0.8
		c0,0.3,0,0.5,0,0.8c0,0.3,0,0.5,0,0.8c0.6-0.9,1.2,2,2.3,0.4c-0.2,0.5-0.2,1.8,0,2.4c-0.5,0-0.5,1.3-1.1,1.2
		c0.3,1.5-0.1,2.2-0.5,3.1c0.3,0.4,0.5-1.2,0.6,0c0,0.2,0,0.3-0.1,0.4c-0.1,0-0.2-0.3-0.4-0.3c0,0.2,0,0.5,0,0.8
		c-0.1,0.1-0.1,0.1-0.2,0.2c-0.2-1.5,0.1-4.3-0.6-4.7c0,0.6-0.9,0.6-0.9,0c0.1-0.3,0.1-0.6,0.1-0.9c0.1,0,0.2,0,0-0.2c0,0,0,0,0,0
		c0-0.3,0-0.7,0-1.1c0.1-0.2,0.3-0.5,0.3-0.8c-0.3-0.1,0.1-0.6-0.2-0.7c0,0.1-0.1,0.2-0.1,0.3c0-1.1,0.2-2,0.7-2
		c0.1-0.7-0.2-1,0-1.2c0.1-0.1,0.3,0,0.3-0.4c-1.1,0-1.2-2.7-1.1-5.5c-0.5-0.3-0.5-2.3-0.9-2c0.9-1.6-0.3-3.9-0.1-5.6
		c-0.1,0.2-0.1-1.4-0.2-1.5c0.9,0.1,0.5-3.9,0.5-4.3c-0.2,1.1-0.1-1.2-0.5,0c0-0.8-0.1-1.3-0.1-1.7h-0.2v-4c-0.4,0-0.8-0.1-1.5-0.1
		c1.1-0.3-1-0.3,0-0.5c-0.3,0-3.8-0.5-3.8,0.5c0-0.1-1.5-0.2-1.3-0.2c-1.4,0.2-3.5-1-4.9-0.1c0.3-0.4-1.4-0.4-1.7-0.9
		c-2.4,0.1-4.8,0-4.8-1.1c-0.3,0-0.3,0.2-0.3,0.3c-0.2,0.2-0.4-0.1-1,0c-0.1,1.2-3.2,0.5-4.8,0.9c-0.6,0-0.6-1,0-0.9
		c-0.3-0.7-2.8-0.4-4.1-0.6c0.3-0.2,0.3-0.6,1-0.6c1,0.1-0.3,0.3,0,0.6c0.8-0.3,1.4-0.8,2.7-0.5c-0.1-0.6,1-0.6,1-1.1
		c0.4,0.2,1.6,0.2,2.1,0c-1.4,1.1,1.1,1.7,0.3,2.3c0.2,0,0.5,0,0.7,0c0.2,0,0.5,0,0.7,0c-0.3-0.5-0.2-0.9,0.7-0.5
		c-0.4-0.3,0.3-1.6-0.7-1.7c0.1-0.4,1.6-0.1,1,0.3c1.1-0.1,1.3-0.7,2.1-0.9c0.6,0.7,2.5-0.1,2.7-0.2c-0.9-1.1-6.7,0.3-8.6-0.5
		c2.5-1.2-3.1-1.4-6.9-1.1c1.1,0.5-0.9,0.1-1,0.5c-0.5-0.1,0-0.3,0.3-0.3c-1.5-0.4-3.6,0.6-5.1-0.2c0.1-0.2,0.6-0.1,1-0.2
		c-0.1-0.6-1.4-0.7-3.1-0.6c-0.1,0.2,0.3,0.3,0.3,0.5c-2.5,0-5.3,0.1-7.2,0.5c0,0.4,0.6,0.5,0.3,0.9c0.8,0.3,1.9,0.4,2.1,0.9
		c-0.7,0.4-2.3,0.3-3.8,0.3c-1.3-0.2-0.4-0.5-1.4-0.8c-0.9,0-1.7,0-1.7,0.3c-0.5-0.3-1.6-0.4-2.1-0.8c-0.4,0.8-1.9,1.2-3.4,1.5
		c-0.2,0.5,0.6,0.5,0,0.8c-0.3-0.3-1.3-0.5-1,0.2c-1.4-0.4-4,0.6-5.5-0.5c-0.9,0.3-2,0.4-2.4,0.9c-4.8,0-12,1.3-18.5,0.5
		c0,0.2,0,0.4,0,0.6c-0.3-0.1-0.8-0.2-1.4-0.2c0.8-1.1,3.2-1.6,3.4-2.6c1.9,0.1,2.3-0.5,5.1-0.3c-0.1-0.2-0.7-0.1-0.7-0.3
		c0.9-0.1,3,0.1,3.4-0.6c0.4,0,0.3,0.3,0.3,0.5c1.6-0.4,2.1-0.4,4.1-0.6c-2.1,0.4,0.9,0.3,1.7,0.5c0.3-0.5-1.1-0.2-1.4-0.5
		c2.2,0.1,4.3-0.5,7.2-0.3c0-0.3,0.9-0.2,0.7-0.6c0.8,0,1.6,0,2.4,0c0.2,1.2,5.5,0,5.5,0.9c1.9-0.6,5.6-0.4,5.5-2
		c-0.3,0-0.3,0.2-0.3,0.3c-4.8-0.7-8,0.2-12,0.6c-0.5-0.1-1.1-0.2-1-0.6c-2.1,0.2-5.6-0.2-6.9,0.8c-1.3,0-3.8-0.3-3.1,0.2
		c-2.5-0.1-1.9,0-4.8-0.2c1.3-0.9-4.3-0.3-5.1,0.2c0.5-0.6-1.2-0.3-3.1-0.6c0,0.2,0,0.4,0,0.6c-1-0.1-0.4-0.2-0.3-0.6
		c-1.3-0.1-2-0.3-3.1-0.5c-0.3,0.2-0.7,0.3-1,0.5c-1,0-1.3-0.4-1.7-0.6c1.5,0.4,3.2,0.1,3.4-1.2c-1.1-0.1-2.1-0.2-2.1-0.8
		c-0.6,0-1.1,0-1.7,0c-0.3,0.5,0.5,0.5,0.7,0.8c-0.8-0.1-1-0.5-1.4-0.8c-3.7,0.1-4.6,0.4-7.9-0.5c-4.1,1.6-11.1,0.3-14.7,1.2
		c-0.3-0.3-0.9-0.4-2.1-0.3c-0.6,0.9-2.3,1.3,0,1.9c2.8-0.5,6.7-1.1,9.6-1.4c1,0.1,0.4,0.2,0.3,0.6c0.6,0,1.7,0.2,1.4-0.3
		c0.5,0.1,0.3,0.5,1.4,0.3C630.2,4.9,630,5,630,5.2c1.1,0.2,0.8-0.2,1.4-0.3c-1.7,0.9-2.6,1.5-5.5,1.7c-0.1,0.2,0.3,0.3,0.3,0.5
		c-1.9-0.5-1.7,0.6-3.8,0.5c-0.1-0.4,0.5-0.5,1-0.6c-1.5-0.5-3.2,0.2-4.5-0.8c-0.7,0.2-1.9,0.5-1,0.9c-2.8-0.5-6.6-0.5-7.9-0.8
		c-1.2,0.6-3.3,0.8-4.1,1.5c-1.1,0.1-0.4-0.5-1.7-0.3c-0.1-0.4,1.5-0.4-0.3-0.5c0.3-0.1,0.6-0.2,1-0.3c-1.3-0.5-1.6,0.8-2.4,1.1
		c-1.3,0.1-1.9-0.4-2.7,0c0.4-0.2,0.4-0.4,0-0.6c0.9-0.2,1.5,0.5,1.4-0.2c-0.6,0-1.1,0-1.7,0c1.2-0.6,2.5-1.5,5.1-1.2
		c0.3-0.3,1-0.4,0.7-0.9c1.9,0.1,7.6,0,8.9-1.1c-1.7,0.2-1.8-0.3-3.4,0.2c-0.7,0,0.5-0.4-0.3-0.6c-0.7,0.5-1.2,0-2.1,0
		c-3.8,0-7.3,0.6-10.6,1.4c0.5,0.7-1.3,0.3-1,0.9c-0.1-0.1-1.2-1.3-0.3-1.5c-1.6,0.2-3.8-0.4-6.2,0.2c-0.6-0.9-3.7-0.3-5.5-0.3
		c0-0.2,0.4-0.1,0.7-0.2c-4.9-0.5-14.7,0.9-21.9-0.3c-0.5-0.7,0.8-0.7,1.4-0.9c-1.3-1.3-4-0.7-6.2-1.2c-3.5,0.7-7.1-0.8-11.7-0.6
		c-0.1-0.4,1.3-0.1,1-0.6c-0.8-0.3-1.7,0.2-3.1,0c-0.6,0.8-1,1.5-0.7,2.3c-3.3,1.1-5.8,2.4-3.4,4.2c-0.2,2-8.2,1.6-10.6,1.5
		c0.2-0.1,0.3-0.3,0.7-0.3c-0.8-0.4-3.1-0.2-2.7-1.1c-1.8-0.3-1.5,0.5-2.7,0.5c0.2,0.5,1.2,0.8,0,1.1c1.4,0.2,3.1,0.2,4.8,0
		c-1.2,0.5,1.4,0.8,2.7,1.1c-0.1,0.9-0.1,1.3,1,1.5c-0.4,0.5-1,0.8-1.9,1c-0.1-0.2-0.1-0.3,0.1-0.6c-0.2-0.4-1.4,0-1.2-0.8
		c-0.5,0.3-1,0-1,0.5c-1.3,0.3-2.4-0.2-3.7-0.2c-2.4,0-4.6,1.2-6.8,1.4c-1.5,0.1-2.8-0.3-4.4-0.2c0.4,0-1.2,0.4-1.5,0.2
		c-0.3-0.1,0.1-0.2,0-0.5c-1.7-0.2-3.9-0.4-5.4,0c-1.8-0.9-2.7,1.1-4.7,0c0.1-0.7-0.2-0.8,0-1.2c-1.4-0.3-2.9,0.5-3.3-0.3
		c-0.5,0.3-1.4,0.4-1.4-0.5c-0.9,0.1-0.9,0.2-1.6,0.3c-0.4-0.7-1.1-0.2-1.6-0.6c-0.8,2.2-4.4,0.9-6.5,1.4V9.9
		c-1.6,0.1-3.2,0.2-4.7,0.1c-1.8,1.4-8-0.2-11-0.2c-1.8,0.8-4.1,0.2-6.8,0.6c-0.8,0.2,0.4,0.4-0.3,0.5c-2.1-0.5-3.9-1.2-4.5-2.5
		c-8.3-1.2-18.5,0.5-26.4-0.6c-0.2,0.9-3.9,0-2.7,0.8c-4.2-0.4-4.9,2.1-9.2,1.2c-0.1,0.2,0.1,0.4-0.3,0.5c-1.1-0.6-2.8-0.4-4.1-0.5
		c0.8-0.4,0.5-0.7,0.7-1.5c-2.3-0.8-6.1-1.6-10.6-1.5c-6.4,0.1-14.8,0-18.1,0.5c-0.5-0.2-0.7-0.4-1-0.6c-1.8-0.1-2.7,0.3-4.1,0
		c0,0.3,0,0.6,0,0.9c0,0-0.1,0-0.1,0c-0.1-0.1-0.3-0.3-0.9-0.2c-0.1,0.1,0,0.2,0,0.3c-2.5,0.1-4.6-0.8-7.6-0.6
		c0.5,0.5,0.5,1-0.1,1.4c-0.4,0-0.8,0-1.3,0c-1.5-0.8-6.5-0.9-8.6-0.5c-1,0-1.4-0.3-1.7-0.6c-3.5,0.3-4.9-0.7-3.8-1.9
		c-3.4-0.3-5.7,1-8.6,0.5c0-0.3,0-0.6,0-0.9c-1.4,0.3-2.3-0.1-4.1,0c-0.3,0.2-0.6,0.5-1,0.6c-3.3-0.4-11.8-0.4-18.2-0.5
		c-4.5-0.1-8.3,0.8-10.6,1.5c0.2,0.9-0.1,1.1,0.7,1.5c-1.3,0-3-0.2-4.1,0.5c-0.4,0-0.3-0.3-0.3-0.5c-4.4,0.8-5.1-1.7-9.3-1.2
		c1.2-0.7-2.6,0.1-2.7-0.8c-7.8,1.1-18.1-0.6-26.4,0.6c-0.6,1.2-2.3,1.9-4.5,2.5c-0.8-0.1,0.4-0.2-0.3-0.5c-2.7-0.5-5.1,0.2-6.9-0.6
		c-2.9,0-9.2,1.5-11,0.2c-1.5,0-3.1-0.1-4.7-0.1v2.2c0.3,0.1,0.6,0.2,0.9,0.3c1.3,0.1,2.4-0.4,1.7-0.8c1,0.1,1.8,0.2,2.1,0.6
		c1.3-0.4,1.1-0.2,1.4,0.2c0.8,0,2.3-1.1,2.4,0c0.7-0.3,2.5-0.2,3.1-0.6c1,0,0.3,0.9,1.4,0.5c-0.1,1.1-3.2,0.6-3.1,1.4
		c-1.4,0.2-4.3-0.3-2.7-0.5c-1-0.5-4.3,0.9-4.5-0.2c-1.3,0.1-3.2,0.7-1.7,1.1c-0.1,0.1-0.3,0.1-0.4,0.1c-2.1-0.7-6,0.7-6.8-1.5
		c-0.5,0.5-1.2-0.1-1.6,0.6c-0.6-0.1-0.7-0.2-1.6-0.3c0.1,0.9-0.9,0.8-1.4,0.5c-0.4,0.8-1.9,0-3.3,0.3c0.2,0.5-0.1,0.6,0,1.2
		c-2,1.1-2.9-0.9-4.7,0c-1.5-0.4-3.6-0.2-5.4,0c-0.1,0.3,0.3,0.4,0,0.5c-0.4,0.2-1.9-0.2-1.5-0.2c-1.6-0.1-2.9,0.3-4.4,0.2
		c-2.1-0.2-4.4-1.4-6.8-1.4c-1.3,0-2.3,0.4-3.7,0.2c0-0.4-0.5-0.2-1-0.5c0.2,0.8-1,0.4-1.2,0.8c0.2,0.3,0.2,0.4,0.1,0.6
		c-0.9-0.2-1.5-0.6-1.9-1c1.1-0.3,1.1-0.6,1-1.5c1.3-0.3,4-0.5,2.7-1.1c1.7,0.2,3.4,0.2,4.8,0c-1.2-0.3-0.2-0.6,0-1.1
		c-1.3,0-0.9-0.7-2.7-0.5c0.3,0.9-2,0.7-2.7,1.1c0.4,0,0.5,0.2,0.7,0.3c-2.5,0-10.4,0.4-10.6-1.5c2.4-1.8-0.1-3.1-3.4-4.2
		c0.3-0.9,0-1.5-0.7-2.3c-1.4,0.2-2.3-0.3-3.1,0c-0.3,0.5,1.1,0.2,1,0.6c-4.5-0.2-8.2,1.3-11.6,0.6c-2.2,0.5-4.9-0.1-6.2,1.2
		c0.6,0.2,1.8,0.2,1.4,0.9c-7.2,1.3-17.1-0.2-21.9,0.3c0.3,0,0.7,0,0.7,0.2c-1.8,0-4.9-0.6-5.5,0.3c-2.3-0.5-4.6,0-6.2-0.2
		c0.8,0.2-0.2,1.4-0.3,1.5c0.3-0.6-1.5-0.3-1-0.9c-3.3-0.8-6.8-1.4-10.6-1.4c-0.8,0-1.4,0.5-2.1,0c-0.8,0.2,0.4,0.6-0.3,0.6
		c-1.6-0.5-1.7,0.1-3.4-0.2c1.3,1.1,7,1.2,8.9,1.1c-0.3,0.5,0.4,0.7,0.7,0.9c2.6-0.2,3.9,0.7,5.1,1.2c-0.6,0-1.1,0-1.7,0
		c-0.1,0.6,0.5,0,1.4,0.2c-0.4,0.2-0.4,0.4,0,0.6c-0.8-0.4-1.5,0.1-2.7,0c-0.8-0.3-1.1-1.5-2.4-1.1c0.4,0.1,0.8,0.2,1,0.3
		c-1.8,0-0.3,0-0.3,0.5c-1.3-0.2-0.7,0.4-1.7,0.3c-0.8-0.8-2.9-1-4.1-1.5c-1.2,0.3-5.1,0.3-7.9,0.8c0.8-0.4-0.4-0.7-1-0.9
		c-1.3,1-3,0.3-4.5,0.8c0.5,0.1,1.1,0.2,1,0.6c-2.1,0.2-1.9-1-3.8-0.5c0-0.2,0.4-0.2,0.3-0.5c-2.9-0.2-3.7-0.8-5.5-1.7
		c0.5,0.1,0.3,0.5,1.4,0.3c0-0.2-0.2-0.3-0.3-0.5c1.1,0.2,0.8-0.2,1.4-0.3c-0.3,0.5,0.8,0.3,1.4,0.3c0-0.4-0.7-0.5,0.3-0.6
		c2.9,0.3,6.8,0.9,9.6,1.4c2.3-0.6,0.6-1,0-1.9c-1.1-0.1-1.7,0-2.1,0.3C116,4.7,109,5.9,104.9,4.3c-3.3,0.9-4.2,0.6-7.9,0.5
		c-0.3,0.3-0.6,0.7-1.4,0.8c0.1-0.3,1-0.3,0.7-0.8c-0.6,0-1.1,0-1.7,0c0.1,0.6-1,0.7-2.1,0.8c0.2,1.3,1.9,1.6,3.4,1.2
		c-0.4,0.3-0.7,0.6-1.7,0.6c-0.3-0.2-0.7-0.3-1-0.5c-1,0.2-1.8,0.4-3.1,0.5c0,0.4,0.7,0.5-0.3,0.6c0-0.2,0-0.4,0-0.6
		c-1.9,0.3-3.6,0-3.1,0.6c-0.9-0.4-6.5-1.1-5.1-0.2C78.7,8,79.3,7.9,76.8,8c0.7-0.5-1.8-0.2-3.1-0.2c-1.3-1-4.7-0.5-6.8-0.8
		c0.1,0.4-0.5,0.5-1,0.6c-3.9-0.5-7.2-1.3-12-0.6c-0.1-0.1,0-0.3-0.3-0.3c-0.1,1.6,3.6,1.4,5.5,2c0-0.9,5.2,0.3,5.5-0.9
		c0.8,0,1.6,0,2.4,0c-0.3,0.4,0.7,0.3,0.7,0.6c2.9-0.2,5,0.4,7.2,0.3c-0.3,0.2-1.7,0-1.4,0.5c0.8-0.1,3.8,0,1.7-0.5
		c2,0.2,2.5,0.2,4.1,0.6C79.3,9.2,79.2,9,79.6,9C80,9.7,82.1,9.5,83,9.6c0,0.2-0.6,0.1-0.7,0.3c2.8-0.1,3.3,0.4,5.1,0.3
		c0.2,1.1,2.6,1.5,3.4,2.6c-0.6,0-1.1,0-1.4,0.2c0-0.2,0-0.4,0-0.6C83,13.2,75.8,11.9,71,11.9c-0.4-0.5-1.5-0.6-2.4-0.9
		c-1.5,1-4.1,0.1-5.5,0.5c0.2-0.7-0.7-0.4-1-0.2c-0.6-0.3,0.2-0.3,0-0.8c-1.5-0.3-3-0.7-3.4-1.5c-0.5,0.3-1.5,0.4-2.1,0.8
		c0-0.3-0.9-0.3-1.7-0.3c-1,0.2-0.1,0.6-1.4,0.8c-1.5,0-3.1,0.1-3.8-0.3C49.9,9.3,51,9.2,51.8,9c-0.2-0.5,0.4-0.6,0.3-0.9
		c-1.9-0.3-4.7-0.5-7.2-0.5c0-0.2,0.4-0.2,0.3-0.5c-1.7-0.1-2.9,0-3.1,0.6c0.4,0,1,0,1,0.2c-1.5,0.8-3.6-0.3-5.1,0.2
		c0.4,0,0.8,0.3,0.3,0.3c-0.1-0.3-2.1,0-1-0.5c-3.8-0.3-9.3-0.1-6.8,1.1c-1.8,0.8-7.7-0.7-8.5,0.5c0.2,0,2.1,0.9,2.7,0.2
		c0.8,0.3,1,0.8,2.1,0.9c-0.5-0.4,0.9-0.7,1-0.3c-0.9,0.1-0.3,1.2-0.6,1.6h-6.8c0,0.1,0,0.1,0,0.2c0.5,0.1,0.5,1.1,1.2,0.7
		c0,0.1,0,0.2,0,0.2c-0.1,0-0.1,0-0.2,0c-0.3,0.5-2,0.6-1.7,0.9c-1.4-0.9-3.4,0.3-4.9,0.1c0,0,0,0-0.1,0h-1.3
		c-0.3-0.4-1.4-0.4-2.4-0.4c0.1-0.7,0.2-1.3,0.5-1.3c0-0.2,0-0.4,0-0.6h-1.4c-0.1,0.6-0.1,1.4-0.2,1.9c-0.1,0-0.2,0-0.2,0
		c0.1,0,0.2,0,0.2,0c0,0,0,0,0,0.1c-0.1,0-0.4,0.1-0.5,0.1H8.6c0,0.1,0,0.2,0,0.3c-0.1,0-0.2,0-0.3,0v3.2C8.1,18.7,8,19.8,8,20.7
		c0.1,0.2,0.2,0.5,0.2,0.7v1.8c0.1,0,0.1,0,0.2,0c0,1,0,2,0,3.1c-0.1,0-0.1,0-0.2,0v1.1c0.1,0,0.2,0,0.3,0c0,0.1,0,0.3,0,0.4
		C8.8,28.6,9,27.4,9,28.2c-0.5,2.2-1.2,4-2.4,4.6c-1.1,8.7,0.5,19.3-0.6,27.5c0.9,0.2,0,4.1,0.7,2.9c-0.4,4.3,2,5.1,1.2,9.6
		c0.2,0.1,0.4-0.1,0.4,0.4C7.9,74.3,8,76.1,8,77.5c-0.4-0.8-0.7-0.5-1.5-0.7C5.8,79.2,5,83.1,5,87.9c0.1,6.6,0,15.5,0.4,18.9
		c-0.1,0.5-0.4,0.7-0.6,1.1c-0.1,1.9,0.3,2.9,0,4.3c0.3,0,0.6,0,0.9,0c0.5,3-0.7,5.4-0.4,8.9c1.1-1.2,2.1,0.3,1.8,3.9
		c0.3,0.3,0.6,0.7,0.6,1.8c-0.4,2.1-0.3,7.4,0.4,8.9c0.2,4.6-0.6,7.1-0.4,9.6c-0.2-0.1-0.3-0.5-0.6-0.4c-0.2,1.3,0.6,0.6,0.4,1.8
		c-0.6,0.4-0.3,3.1-0.6,4.3c0.8,1.7,0.8,3.5,1.3,5.4c0,0.6-0.4,0.3-0.3,1.1c0.9,1.7,0.7,6.9,1,11.1c0.2,0,0.5,0,0.7,0
		c0-2.3-0.2-4.2-0.1-6.8C9.2,162,9,161.5,9,160.4c0.3,0.6,0.2,0,0.6,0c0-0.6-0.1-1.8,0.3-1.4c0,0.1,0,0.1,0,0.2
		c0,0.1,0.1,0.1,0.1,0.2c0,0.1,0,0.2,0,0.4c0.1,0,0.1,0,0.1,0c0.3,0.7,0.5,1.6,0.7,2.2c0,0.3,0.1,0.5,0.2,0.7c0-0.1,0-0.2,0.1-0.3
		c0.1,0.1,0.2,0.1,0.2,0.1c0.1,2.9,0.3,10.2-1.5,10.4c-1.7-2.4-3.1,0.1-4.1,3.5c-0.9-0.3-1.4,0-2.3,0.7c0.2,1.5-0.3,2.4,0,3.1
		c0.5,0.3,0.2-1.1,0.6-1c-0.2,4.6,1.3,8.3,0.6,11.9c0.5,2.2-0.1,5,1.2,6.3c0.2-0.6,0.2-1.9,0.9-1.4C8.1,203,6.7,213,7.2,218
		c0-0.3,0-0.7,0.2-0.7c0,1.8-0.6,5,0.3,5.6c-0.5,2.4,0,4.6-0.2,6.3c0.2-0.9,1.4,0.2,1.5,0.3c-0.6-0.3-0.2,1.5-0.9,1
		c-0.8,3.4-1.3,6.9-1.4,10.8c0,0.8,0.5,1.4,0,2.1c0.2,0.9,0.6-0.4,0.6,0.3c-0.5,1.6,0.1,1.7-0.2,3.5c1.1-1.4,1.2-7.1,1.1-9.1
		c0.5,0.3,0.6-0.4,0.9-0.7c-0.2-2.7,0.7-4,1.2-5.2c0,0.6,0,1.2,0,1.7c0.6,0.1,0-0.5,0.2-1.4c0.2,0.4,0.4,0.4,0.6,0
		c-0.4,0.9,0.1,1.5,0,2.8c-0.3,0.8-1.5,1.2-1.1,2.4c0.1-0.4,0.2-0.8,0.3-1c0,1.9,0,0.3,0.5,0.3c-0.2,1.3,0.4,0.7,0.3,1.7
		c-0.8,0.8-1,2.9-1.5,4.2c0.3,1.3,0.3,5.2,0.8,8c-0.4-0.9-0.7,0.4-0.9,1c1,1.3,0.3,3,0.8,4.5c0.1-0.3,0.1-0.5,0.2-0.7
		c0,0.6,0,1.1,0,1.7c-0.2,0.4-0.3,0.8-0.2,1.5c0,0.1,0,0.2-0.1,0.2c-0.1-0.1-0.1-0.3-0.3-0.2c0,0.4-0.1,0.7-0.1,1
		c-0.2,0.2-0.4,0.4-0.6,0.5c0.3,0.4,0.1,0.9,0.3,1.3c-0.3,1-0.7,1.7-1.2,2.8c0.1-0.5,0.5-0.3,0.3-1.4c-0.2,0-0.3,0.2-0.5,0.3
		c0.2-1.1-0.2-0.8-0.3-1.4c0.5,0.4,0.3-0.8,0.3-1.4c-0.4,0-0.5,0.7-0.6-0.3c0.3-3,0.9-7,1.4-9.8c-0.5-2.3-1-0.6-1.8,0
		c-0.1,1.1,0,1.8,0.3,2.1c-0.9,3.7,0.3,10.8-1.2,15c0.9,3.3,0.6,4.3,0.5,8c0.3,0.3,0.6,0.6,0.8,1.4c-0.3-0.1-0.3-1-0.8-0.7
		c0,0.6,0,1.2,0,1.7c0.6-0.1,0.7,1,0.8,2.1c1.3-0.2,1.6-2,1.2-3.5c0.3,0.4,0.6,0.7,0.6,1.7c-0.1,0.4-0.3,0.7-0.5,1
		c0.1,1.1,0.4,1.9,0.5,3.1c0.4,0,0.5-0.7,0.6,0.3c-0.2,0-0.4,0-0.6,0c0.3,2,0,3.6,0.6,3.1c-0.4,0.9-1,6.6-0.2,5.2
		c0.1,3,0.1,2.4,0.2,4.9c-0.5-0.8-0.2,1.8-0.2,3.1c-0.2,0-0.3,0-0.6,0c-0.3-1.4-0.5-4.1-1-2.9c0.1-1.8,0.2-3.5,0-5
		c-0.3,1.3-0.6,0.2-1,0c0,1.3-0.7,0.9-0.4,2.9c0.9-0.3,0.6,2.1,1,2.9c0-0.4,0.2-0.6,0.3-0.7c0,2.6,0.4,10.8-1.5,11.1
		c-1.7-2.5-3,0.1-4,3.6c-0.8-0.3-1.4,0-2.2,0.7c0.2,1.5-0.3,2.4,0,3.2c0.5,0.3,0.2-1.2,0.6-1.1c-0.2,4.7,1.3,8.5,0.6,12.1
		c0.5,2.3-0.1,5.1,1.2,6.4c0.2-0.6,0.2-1.9,0.9-1.4c1.2,7.5-0.2,17.8,0.3,22.9c0-0.3,0-0.7,0.1-0.7c0,1.8-0.6,5.1,0.3,5.7
		c-0.5,2.4,0,4.8-0.1,6.4c0.2-0.9,1.4,0.2,1.5,0.4c-0.6-0.3-0.2,1.6-0.9,1.1c-0.7,3.4-1.3,7.1-1.3,11.1c0,0.9,0.5,1.4,0,2.1
		c0.2,0.9,0.6-0.4,0.6,0.4c-0.5,1.7,0.1,1.8-0.1,3.6c0.8-1.1,1-4.9,1.1-7.4c0.2,0,0.4,0.2,0.5,0.4c0-0.4,0.3-0.8,0-1.1
		c-0.1,1.2-0.3-0.4-0.5-0.4c0,0.2,0,0.3-0.1,0.4c0-0.5,0-0.9,0-1.2c0.5,0.3,0.6-0.4,0.9-0.7c-0.2-2.7,0.6-4.1,1.2-5.4
		c0,0.6,0,1.2,0,1.8c0.6,0.1,0-0.5,0.1-1.4c0.2,0.4,0.4,0.4,0.6,0c-0.4,0.9,0.1,1.6,0,2.9c-0.3,0.8-1.5,1.2-1,2.5
		c0.1-0.4,0.2-0.8,0.3-1.1c0,1.9,0,0.3,0.4,0.4c-0.2,1.3,0.4,0.7,0.3,1.8c-0.8,0.8-0.9,3-1.5,4.3c0.3,1.3,0.3,5.3,0.7,8.2
		c-0.4-0.9-0.7,0.4-0.9,1.1c0.9,1.4,0.3,3.1,0.7,4.6c0.1-0.5,0.2-1.1,0.6-1.1c0.2,2.2-1,1.9-0.4,3.9c-0.2,0-0.2-0.5-0.4-0.4
		c-0.2,3-0.7,3.9-1.6,5.7c0.1-0.6,0.5-0.3,0.3-1.4c-0.2,0-0.3,0.2-0.4,0.4c0.2-1.1-0.2-0.9-0.3-1.4c0.4,0.4,0.3-0.8,0.3-1.4
		c-0.4,0-0.5,0.7-0.6-0.4c0.3-3,0.8-7.1,1.3-10c-0.5-2.4-1-0.6-1.8,0c-0.1,1.2,0,1.8,0.3,2.1C3,393.8,4.1,401,2.6,405.3
		c0.8,3.4,0.6,4.4,0.4,8.2c0.3,0.4,0.6,0.6,0.7,1.4c-0.3-0.2-0.3-1-0.7-0.7c0,0.6,0,1.2,0,1.8c0.5-0.1,0.7,1,0.7,2.1
		c1.3-0.2,1.6-2,1.2-3.6c0.3,0.5,0.6,0.7,0.6,1.8c-0.1,0.4-0.3,0.7-0.4,1.1c0.1,1.1,0.4,1.9,0.4,3.2c0.4,0,0.5-0.7,0.6,0.4
		c-0.2,0-0.4,0-0.6,0c0.3,2,0,3.7,0.6,3.2c-0.4,0.9-1,6.8-0.1,5.4c0.1,3.1,0.1,2.4,0.1,5c-0.4-0.8-0.2,1.9-0.1,3.2
		c-0.9,1.3-0.5,4.9-0.7,7.1c0.4-0.1,0.5,0.5,0.6,1.1c-0.4,4.1-1.3,7.5-0.6,12.5c-0.1,0.1-0.3,0-0.3,0.4c1.5,0.2,1.3-3.7,1.9-5.7
		c-0.9,0,0.3-5.5-0.9-5.7c0-0.8,0-1.7,0-2.5c0.4,0.3,0.3-0.7,0.6-0.7c-0.2-3,0.4-5.2,0.3-7.5c0.2,0.3,0,1.8,0.4,1.4
		c-0.1-0.8,0-4-0.4-1.8c0.2-2.1,0.2-2.6,0.6-4.3c-0.2-0.1-0.4,0.1-0.4-0.4c0.7-0.4,0.5-2.6,0.6-3.6c0.2,0,0.1,0.6,0.3,0.7
		c-0.1-3,0.4-3.4,0.3-5.4c1-0.2,1.4-2.7,2.5-3.6c0,0.6,0,1.1,0.1,1.4c-0.2,0-0.4,0-0.6,0c0.8,6.7-0.5,14.3-0.4,19.3
		c-0.5,0.4-0.6,1.6-0.9,2.5c1,1.6,0.1,4.3,0.4,5.7c-0.7-0.3-0.4,0.7-0.1,1.1c-0.3,0.7-0.3-0.2-0.7,0c-0.3,1.6-0.7,3.1-1.5,3.6
		c0.3,0.5,0.4,1.6,0.7,2.1c-0.3,0.1-0.3,0.9-0.3,1.8c0.2,1,0.5,0.1,0.7,1.4c0,1.6,0.1,3.2-0.3,3.9c-0.5-0.1-0.6-1.3-0.9-2.1
		c-0.5,0.3-0.5-0.4-0.9-0.4c-0.3,1.9-0.4,4.9-0.4,7.5c-0.2,0-0.2-0.5-0.4-0.4c-0.1,1.7,0,3.1,0.6,3.2c0-0.4,0-1,0.1-1.1
		c0.7,1.6-0.2,3.8,0.1,5.4c0-0.4,0.2-0.9,0.3-0.4c-0.3,0.1,0,2.2-0.4,1.1c-0.3,4-0.1,9.7,1,7.1c0.8,1.9-0.7,8,0.4,8.9
		c0-0.2,0.8-2.2,0.2-2.8c0.3-0.8,0.8-1,0.9-2.1c-0.4,0.6-0.7-0.9-0.3-1.1c0.1,1,1.4,0.3,1.6,0.7c-0.4-1,0-1,0.4-0.7
		c0-0.2,0-0.5,0-0.7c0-0.2,0-0.5,0-0.7c-0.6,0.8-1.1-1.8-2.2-0.4c0.2-0.5,0.2-1.7,0-2.1c0.5,0,0.5-1.2,1-1.1c-0.3-1.4,0.1-2,0.4-2.9
		c-0.3-0.3-0.5,1.1-0.6,0c0-0.7,0.4-0.7,0.6-1.1c0.2,1.4-0.1,3.9,0.6,4.3c0-0.6,0.9-0.6,0.9,0c-0.5,1.6,0.2,4.9-0.9,5
		c-0.1,0.6,0.2,0.9,0,1.1c-0.1,0.1-0.3,0-0.3,0.4c1.1,0,1.1,2.5,1,5c0.5,0.3,0.5,2.1,0.9,1.8c-0.9,1.4,0.3,3.6,0.1,5.1
		c0.1-0.2,0.1,1.3,0.2,1.4c-0.9-0.1-0.5,3.6-0.4,3.9c0.2-1,0.1,1.1,0.4,0c0,0.7,0.1,1.1,0.1,1.5h0.4c0,0.2,0,0.4-0.1,0.6
		c2.6,0.8,6.9,1.7,12.1,1.6c7.2-0.1,16.9,0,20.7-0.5c0.5,0.2,0.8,0.4,1.2,0.7c2,0.1,3.1-0.4,4.7,0c0-0.3,0-0.7,0-1
		c3.3-0.5,5.9,0.8,9.7,0.5c-1.3-1.2,0.4-2.3,4.3-2c0.3-0.4,0.8-0.7,1.9-0.7c2.3,0.5,8,0.3,9.7-0.5c4.2-0.2,6.8,0.4,9.2,0.5
		c0,0.1,0.1,0.1,0.1,0.2c0.3,0,0.7,0.1,1,0.1c-0.1,0.1-0.2,0.2-0.1,0.4c0.8,0.1,0.9-0.1,1.1-0.3c0.5,0,0.9,0.1,1.4,0.1
		c1,0.3,3.1,0.1,4.1,0.4c0.2-0.1,0.4-0.2,0.6-0.2c6.3,0,12.9-0.6,18.3,0.2c0.2-0.9,3.9,0,2.7-0.8c4.2,0.4,4.9-2.1,9.3-1.2
		c0.1-0.2-0.1-0.4,0.3-0.5c1.1,0.6,2.8,0.4,4.1,0.5c-0.8,0.4-0.5,0.7-0.7,1.5c2.2,0.8,5.8,1.5,10.1,1.5v0.4c2-0.1,3.9-0.2,5.8-0.2
		c0.2-0.1,0.5-0.3,0.9-0.3c2,0,3.9,0,5.7-0.1c2.6,0.2,5.3,0.6,7.1,0.6c0.3-0.1,0.7-0.2,1.1-0.3c1.3,0,2.2-0.3,3.3,0
		c0-0.1,0-0.1,0-0.2c1.3,0,2.7,0,4.1-0.2c0.7-0.2,0-0.3,0.1-0.4c0.5,0.1,1,0.2,1.6,0.2c2.1,0.5,3.7,1.2,4.3,2.3
		c10.4,1.3,23.1-0.5,32.8,0.7c0.2-1,4.9,0,3.4-0.8c5.2,0.4,6.1-2.2,11.5-1.3c0.1-0.2-0.1-0.5,0.4-0.5c1.3,0.7,3.5,0.5,5.1,0.5
		c-1,0.5-0.6,0.7-0.9,1.6c2.8,0.8,7.6,1.7,13.2,1.6c7.9-0.1,18.5,0,22.6-0.5c0.6,0.2,0.8,0.4,1.3,0.7c2.2,0.1,3.4-0.4,5.1,0
		c0-0.1,0-0.2,0-0.3c0.5,0.2,1,0.3,1.5,0.5c-0.3,0.9,0,1.6,0.8,2.5c1.6-0.2,2.6,0.3,3.5,0c0.3-0.5-1.3-0.2-1.2-0.7
		c5.2,0.2,9.3-1.4,13.2-0.7c2.5-0.6,5.6,0.1,7-1.3c-0.7-0.3-2.1-0.2-1.6-1c8.2-1.3,19.4,0.2,24.9-0.3c-0.3,0-0.8,0-0.8-0.2
		c2,0,5.6,0.6,6.2-0.3c2.7,0.6,5.2,0,7,0.2c-1-0.2,0.3-1.5,0.4-1.6c-0.3,0.6,1.7,0.3,1.2,1c3.8,0.8,7.7,1.4,12.1,1.5
		c0.9,0,1.6-0.5,2.3,0c1-0.2-0.4-0.6,0.4-0.7c1.8,0.5,1.9-0.1,3.9,0.2c-1.5-1.2-8-1.2-10.1-1.1c0.3-0.6-0.4-0.7-0.8-1
		c-2.5,0.2-4-0.4-5.2-1c0.8,0,1.6-0.1,2.4-0.1c0-0.3,0-0.5,0-0.8c-0.8,0-1.6,0-2.4,0.1c0-0.1-0.1-0.1-0.3-0.2c1,0.4,1.7-0.1,3.1,0
		c0.9,0.3,1.3,1.6,2.7,1.1c-0.5-0.1-0.9-0.2-1.2-0.3c2.1,0,0.3,0,0.4-0.5c1.5,0.2,0.7-0.5,1.9-0.3c0.9,0.8,3.3,1,4.7,1.6
		c1-0.2,3.4-0.3,5.9-0.5c-0.4,0.9,0.3,1.6,1.6,2.3c0.3,0.3,0.8,0.6,1.1,1c0.6,0,1,0,1.4,0c0,0,0.1,0,0.1,0c-0.3,0.9,0,1.5,0.7,2.3
		c1.4-0.2,2.3,0.3,3.1,0c0.3-0.5-1.1-0.2-1-0.6c4.5,0.2,8.2-1.3,11.7-0.6c0.9-0.2,1.8-0.2,2.7-0.3c0.2,0.1,0.3,0.1,0.5,0.2
		c3.7-0.9,4.8-0.6,9-0.5c0.4-0.3,0.7-0.7,1.6-0.8c-0.2,0.3-1.1,0.3-0.8,0.8c0.7,0,1.3,0,2,0c-0.1-0.6,1.1-0.8,2.3-0.8
		c-0.1-0.6-0.5-0.9-1-1.2c4.1,0.1,8,0.4,10.5,0.1c-0.3,0-0.7,0-0.7-0.2c1.8,0,4.9,0.6,5.5-0.3c2.3,0.5,4.6,0,6.2,0.2
		c-0.5-0.1-0.3-0.7,0-1.1c0.3,0,0.6,0,0.9,0c0,0,0.1,0,0.1,0c0.1,0.1,0.3,0.2,0.4,0.2c0,0.1,0,0.1,0,0.3c3.3,0.8,6.8,1.4,10.6,1.4
		c0.8,0,1.4-0.5,2.1,0c0.8-0.2-0.4-0.6,0.3-0.6c1.6,0.5,1.7-0.1,3.4,0.2c-0.2-0.2-0.6-0.3-1-0.4c1.2,0.1,2.5,0.1,3.9,0.1
		c0.2,0.2,0.4,0.3,0.5,0.5c1.1,0.1,1.7,0,2.1-0.3c3.7,0.9,10.6-0.3,14.7,1.2c3.3-0.9,4.2-0.6,7.9-0.5c0.3-0.3,0.6-0.7,1.4-0.8
		c-0.1,0.3-1,0.3-0.7,0.8c0.6,0,1.1,0,1.7,0c-0.1-0.6,1-0.7,2.1-0.8c-0.2-1.3-1.9-1.6-3.4-1.2c0.4-0.3,0.7-0.6,1.7-0.6
		c0.3,0.2,0.7,0.3,1,0.5c1-0.2,1.8-0.4,3.1-0.5c0-0.4-0.7-0.5,0.3-0.6c0,0.2,0,0.4,0,0.6c1.9-0.3,3.6,0,3.1-0.6
		c0.9,0.4,6.5,1.1,5.1,0.2c2.9-0.1,2.3-0.1,4.8-0.2c-0.7,0.5,1.8,0.2,3.1,0.2c1.3,1,4.7,0.5,6.9,0.8c-0.1-0.4,0.5-0.5,1-0.6
		c1.8,0.2,3.4,0.5,5.1,0.7c-1,0.2-1.5,0.4-0.7,0.7c-2.1-0.2-4.2-0.2-6,0c1.5,0.3,0.3,0.7,0,1.1c1.6,0,1.1,0.8,3.4,0.5
		c-0.4-1,2.5-0.7,3.4-1.1c-0.5,0-0.7-0.2-0.9-0.3c3.1,0,12.9-0.4,13.2,1.6c-2.9,1.9,0.1,3.3,4.3,4.4c-0.4,0.9,0,1.6,0.9,2.5
		c1.8-0.2,2.9,0.3,3.8,0c0.4-0.5-1.4-0.2-1.3-0.7c5.6,0.2,10.2-1.4,14.5-0.7c2.7-0.6,6.1,0.1,7.7-1.3c-0.8-0.3-2.3-0.2-1.7-1
		c8.9-1.3,21.2,0.2,27.3-0.3c-0.3,0-0.8,0-0.9-0.2c2.2,0,6.1,0.6,6.8-0.3c2.9,0.6,5.7,0,7.7,0.2c-1-0.2,0.3-1.5,0.4-1.6
		c-0.4,0.6,1.9,0.3,1.3,1c4.1,0.8,8.5,1.4,13.2,1.5c1,0,1.7-0.5,2.6,0c1-0.2-0.5-0.6,0.4-0.7c2,0.5,2.1-0.1,4.3,0.2
		c-1.7-1.2-8.7-1.2-11.1-1.1c0.3-0.6-0.5-0.7-0.9-1c-3.3,0.2-4.9-0.7-6.4-1.3c0.7,0,1.4,0,2.1,0c0.1-0.7-0.6,0-1.7-0.2
		c0.5-0.2,0.5-0.4,0-0.7c1,0.4,1.8-0.1,3.4,0c1,0.3,1.4,1.6,3,1.1c-0.5-0.1-1-0.2-1.3-0.3c2.3,0,0.3,0,0.4-0.5
		c1.6,0.2,0.8-0.4,2.1-0.3c1,0.8,3.6,1,5.1,1.6c1.5-0.3,6.4-0.3,9.8-0.8c-1,0.4,0.5,0.8,1.3,1c1.6-1,3.7-0.3,5.5-0.8
		c-0.6-0.1-1.4-0.2-1.3-0.7c2.6-0.2,2.3,1.1,4.7,0.5c0,0.2-0.5,0.2-0.4,0.5c3.6,0.2,4.7,0.8,6.8,1.8c-0.7-0.1-0.4-0.5-1.7-0.3
		c0,0.2,0.2,0.4,0.4,0.5c-1.3-0.2-1,0.3-1.7,0.3c0.4-0.5-0.9-0.3-1.7-0.3c0.1,0.4,0.8,0.5-0.4,0.7c-3.6-0.4-8.5-0.9-11.9-1.5
		c-2.8,0.6-0.7,1.1,0,2c1.4,0.1,2.1,0,2.6-0.3c4.6,1,13.2-0.3,18.3,1.3c4.1-0.9,5.2-0.6,9.8-0.5c0.4-0.3,0.7-0.7,1.7-0.8
		c-0.2,0.3-1.2,0.3-0.9,0.8c0.7,0,1.4,0,2.1,0c-0.1-0.6,1.2-0.8,2.6-0.8c-0.3-1.4-2.4-1.7-4.3-1.3c0.5-0.3,0.9-0.6,2.1-0.7
		c0.4,0.2,0.9,0.3,1.3,0.5c1.3-0.2,2.3-0.4,3.8-0.5c-0.1-0.4-0.8-0.5,0.4-0.7c0,0.2,0,0.4,0,0.7c2.4-0.3,4.5,0,3.8-0.7
		c1.1,0.5,8.1,1.1,6.4,0.2c3.7-0.1,2.9-0.1,6-0.2c-0.9,0.5,2.3,0.2,3.8,0.2c1.6,1,5.9,0.6,8.5,0.8c-0.1-0.4,0.7-0.5,1.3-0.7
		c4.9,0.5,9,1.4,14.9,0.7c0.1,0.1,0,0.3,0.4,0.3c0.2-1.7-4.5-1.5-6.8-2.1c0,1-6.5-0.3-6.8,1c-1,0-2,0-3,0c0.3-0.4-0.8-0.3-0.9-0.7
		c-3.6,0.2-6.2-0.4-8.9-0.3c0.3-0.3,2.1,0,1.7-0.5c-1,0.2-4.7,0-2.1,0.5c-2.5-0.2-3.1-0.2-5.1-0.7c-0.1,0.2,0.1,0.5-0.4,0.5
		c-0.5-0.7-3.1-0.6-4.3-0.7c0-0.2,0.8-0.2,0.9-0.3c-3.5,0.2-4.1-0.4-6.4-0.3c-0.2-1.1-3.2-1.6-4.3-2.8c0.7,0,1.3,0,1.7-0.2
		c0,0.2,0,0.4,0,0.7c8-0.9,17.1,0.5,23,0.5c0.5,0.5,1.9,0.7,3,1c1.9-1.1,5.1-0.1,6.8-0.5c-0.3,0.7,0.9,0.4,1.3,0.2
		c0.8,0.3-0.3,0.3,0,0.8c1.9,0.4,3.7,0.8,4.3,1.6c0.6-0.4,1.9-0.5,2.6-0.8c0.1,0.4,1.1,0.4,2.1,0.3c1.2-0.3,0.1-0.6,1.7-0.8
		c1.9,0,3.8-0.1,4.7,0.3c-0.1,0.6-1.6,0.7-2.6,1c0.3,0.5-0.4,0.6-0.4,1c2.3,0.4,5.8,0.5,8.9,0.5c0,0.2-0.5,0.2-0.4,0.5
		c2.1,0.1,3.6,0,3.8-0.7c-0.5,0-1.2,0-1.3-0.2c1.9-0.8,4.5,0.3,6.4-0.2c-0.5,0-1-0.3-0.4-0.3c0.2,0.4,2.7,0,1.3,0.5
		c4.7,0.3,11.6,0.1,8.5-1.1c2.3-0.8,9.5,0.7,10.6-0.5c-0.2,0-2.7-0.9-3.4-0.2c-1-0.3-1.2-0.8-2.6-1c0.7,0.5-1.1,0.7-1.3,0.3
		c1.2-0.1,0.3-1.5,0.9-1.8c-1.1,0.4-1.2,0-0.9-0.5c-0.3,0-0.6,0-0.8,0c-0.3,0-0.6,0-0.9,0c1,0.6-2.2,1.3-0.4,2.5
		c-0.5-0.2-2-0.2-2.6,0c0-0.5-1.4-0.6-1.3-1.1c-1.6,0.4-2.4-0.2-3.4-0.5c-0.4,0.3,1.3,0.5,0,0.7c-0.9,0-0.9-0.4-1.3-0.7
		c1.6-0.2,4.7,0.1,5.1-0.7c-0.4,0-0.6-0.3-0.5-0.6h0.2c0-0.1,0-0.2,0-0.3c0.1,0,0.2-0.1,0.3-0.1c0.3,0.1,0.7,0.1,1.2,0.2
		c0,0.1,0,0.1,0,0.2c0,0,0,0.1,0.1,0.1c0,0,0-0.1,0-0.1h0.2c0,0,0,0.1,0.1,0.1c0,0,0-0.1,0-0.1c0-0.1,0-0.1,0-0.2c0.5,0,1.1,0,1.6,0
		c0,0,0,0.1,0,0.1h2c0.5,0.1,0.8,0.3,0.8,0.6c0.7,0.1,1.1-0.2,1.3,0c0.1,0.1,0,0.3,0.4,0.3c0-0.5,0.5-0.8,1.3-1h3.3
		c0-0.1,0-0.2,0-0.2c0.4,0,0.9,0,1.4,0c0.4-0.6,2.4-0.6,2.1-1c0.2,0.1,0.4,0.2,0.7,0.3c-0.3,0-0.5,0-0.5,0.1c0.6,0,0.3,0.3,0,0.5
		c0.5,0,1.3,0.1,1.5-0.2c-0.5-0.1-0.1-0.2,0-0.4c1.5,0,3.1-0.6,4.4-0.4c-0.2-0.1,1.6-0.1,1.6-0.3c-0.1,1,4.3,0.5,4.7,0.5
		c-1.2-0.2,1.4-0.2,0-0.5c0.8,0,1.4-0.1,1.8-0.1v-1.5h0.5c0-1.2-0.3-2.2-0.5-3.1v0c0,0,0,0,0,0c-0.2-0.6-0.4-1.3-0.6-1.9
		c0.2,0,0.4,0,0.6,0v-2.9c-0.3,0-0.6,0-0.9-0.1c0-0.4,0.1-0.9,0.1-1.4c-0.2-0.1-0.4,0.1-0.5-0.4c0.2-0.4,0.3-0.9,0.4-1.4
		c0.2-0.1,0.4-0.1,0.8-0.1v-1.2c-0.2,0-0.4,0-0.7,0c0-0.7,0-1.4,0-2.1c0.4,0.9,0.7,0.5,1.5,0.8c0.8-2.6,1.6-7,1.5-12.2
		c-0.1-7.3,0-17-0.5-20.8c0.2-0.5,0.4-0.8,0.6-1.2c0.1-2-0.3-3.1,0-4.7c-0.3,0-0.6,0-0.9,0c-0.5-3.3,0.7-6,0.5-9.8
		c-1.1,1.3-2.1-0.4-1.8-4.3c-0.3-0.3-0.6-0.8-0.6-2c0.4-2.3,0.3-8.1-0.5-9.8c-0.2-5.1,0.6-7.8,0.5-10.6c0.2,0.1,0.3,0.6,0.6,0.4
		c0.2-1.5-0.6-0.6-0.5-2c0.6-0.4,0.3-3.4,0.6-4.7c-0.8-1.9-0.8-3.8-1.4-5.9c0-0.6,0.4-0.3,0.3-1.2c-0.9-1.9-0.7-7.6-1.1-12.2
		c-0.3,0-0.5,0-0.8,0c0,2.5,0.2,4.6,0.2,7.5c0.5-0.2,0.7,0.3,0.6,1.6c-0.3-0.7-0.2,0-0.6,0c0,0.7,0.2,2-0.3,1.6c0-0.1,0-0.1,0-0.2
		c-0.8-1.1-0.8-4.2-2-3.2c-0.1-2.6,0-5.3-0.2-7.8c-0.7,0.1-0.8-0.4-0.9-1c0.9-1.9,0.9-4.3,1.2-6.4c0.3-1.8,1-2.4,1.2-3.8
		c0,0-0.3-0.3-0.3-0.4c0-1.1,0.3-2.5,0.5-3.2c0-2.8-0.4-5.2-0.2-8c-0.2,0.1-0.8-0.2-0.8,0.2c0.5,0.3,0,0.7,0.3,1.2
		c-0.6,0.1-0.6,0.8-1.4,0.6c0.3-1.1,0.2-1.4,0.3-2.6c1.4-0.4,0.7-2.3,0.2-3.2c0,0.3-0.5-0.4-0.6-0.6c0.2-2.4-1-3.4-0.5-4.6
		c0,0.2-0.1,0.2-0.3,0.2c-0.4-2.4,0.1-3.2,0.5-5.6c-0.4-1.3-0.8-2.4-0.9-4c-1-1.3-1.2-3.4-1.1-5.5c0,0,0,0,0.1,0
		c0.3-0.2,0.1-0.8,0-1.2c0.1-1.8,0.4-3.6,0.5-4.9c-0.4-0.1-0.3,0.4-0.8,0.2c0.4-0.4-0.1-1.9,0.3-2.2c0.4,0,0.8,0.1,0.9,0.4
		c-0.1,0.6-0.4,0.8-0.6,1.2c0.4,0.3,0.3,0,0.8,0.2c-0.1-1.2,0.9-1.4,0.8-2c0.2,0.6,0.7-0.2,0.9-0.2c-0.7-1.4-0.6-2-0.6-3.8
		c-0.9,0-0.2-0.8-0.9-1.2c0.1,0.6-0.6-0.5-0.6,0.2c0.5,0.7-0.4,0.3-0.5,1.2c0-1.6-0.1-2.6-1.2-3.8c0-0.1,0-0.3,0-0.4
		c0.1,0,0.2,0,0.3,0c-0.1-0.6,0-1.2-0.1-1.6c0.4-1.3,1.1-2.2,1.6-2.7c-0.1-1.1,0.3-3.1,0.3-3.8c0-0.1-0.3-0.2-0.3-0.6
		c0.1-0.7,0-1.6,0.2-2.6c0.5-4.1,0.9-9.7,1.1-13.3c0.1-1.3-0.5-2.4,0.2-3c-0.2,0-0.6,0.1-0.6-0.2c0.3-1.2,0.2-3,1.4-3
		c0.4,1.5,0.5,1.6,0.5,2.2c2.3-1.5-0.4-7.8,2.3-9c-0.5-0.6,0.1-1.4-0.6-1.8c0.1-0.7,0.2-0.7,0.3-1.8c-0.9,0.1-0.8-1-0.5-1.6
		c-0.8-0.4,0-2.2-0.3-3.8c-0.5,0.3-0.5-0.1-1.2,0c-1.1-2.3,0.9-3.3,0-5.4c0.4-1.7,0.2-4.2,0-6.2c-0.3-0.1-0.4,0.3-0.5,0
		c-0.2-0.4,0.2-2.2,0.2-1.7c0.1-1.8-0.3-3.3-0.2-5c0.2-2.4,1.4-5,1.4-7.8c0-1.5-0.4-2.7-0.2-4.2c0.4,0,0.2-0.6,0.5-1.2
		c-0.7,0.2-0.4-1.1-0.8-1.4c-0.3,0.2-0.4,0.2-0.6,0.1c0.2-1,0.6-1.7,1-2.2c0.3,1.3,0.6,1.3,1.5,1.2c0.3,1.5,0.5,4.5,1.1,3.1
		c-0.2,1.9-0.2,3.8,0,5.5c0.3-1.4,0.6-0.3,1.1,0c0-1.4,0.7-1,0.5-3.1c-0.9,0.4-0.6-2.3-1.1-3.1c0,0.4-0.2,0.6-0.3,0.8
		c0-2.8-0.4-11.9,1.5-12.2c1.7,2.7,3.1-0.1,4.1-3.9c0.9,0.3,1.4,0,2.3-0.8C743.7,228.1,744.2,227.1,743.9,226.2z M738.7,119.6
		c0.2,0.3,0.4,0.5,0.8,0.4c-0.1,0.5-0.3,0.6-0.3,1.2c-0.2,0-0.3-1.7-0.5-0.4C738.4,120.5,738.7,120,738.7,119.6z M737.8,57.2
		c0.2,0.1,0.1,1,0.2,1.6c-0.1-0.3-0.4-0.6-0.5,0c-0.2-0.1-0.1-1-0.2-1.6C737.6,57.1,737.7,57.9,737.8,57.2z M736,49.4
		c0.2,0.1-0.1,0.7,0.2,0.8c0,0.7-0.9,1.1-0.3,2c0.3,0.7-0.5-0.3-0.8,0.4c0.2,0.4,0.1,1,0,0.4c-0.4-0.2,0.1,1.8-0.5,1.2
		c-0.1,1.2,0.4,0.8,0.3,2c-0.3-0.5-0.5,0.2-0.9-0.4c-0.2-2.5,0.3-3.1,0.5-4.7C735.3,50.4,735.5,50.7,736,49.4z M733.9,49.4
		c0-1,0.3,0.5,0.6,0c0,0,0,0,0,0.1c0,0,0,0,0,0c0.1,0.2-0.5,1.2-0.8,1.1C733.6,50,734.3,49.6,733.9,49.4z M654.4,7.7
		c-0.2,0-0.5,0-0.7,0c-0.3-0.6-1.2-0.4-1.4-0.8C653.5,7,654.1,7.2,654.4,7.7z M85.7,9.3c-0.2,0-0.5,0-0.7,0c0.2-0.5,0.9-0.7,2.1-0.8
		C86.9,8.9,86.1,8.7,85.7,9.3z M7,93.6c-0.6-0.8-0.6-2-0.4-3.4c0.1,0.4,0.2,0.7,0.4,1c0.5-0.1,0.8-0.9,0.9-2C8.2,91,7.8,93.4,7,93.6
		z M8.7,274.8c-0.2-0.3-0.4-0.5-0.8-0.4c0.1-0.5,0.3-0.5,0.3-1c0.2,0,0.3,1.5,0.5,0.3C9,274,8.7,274.4,8.7,274.8z M5.2,412.5
		c-0.2-0.3-0.4-0.5-0.7-0.4c0.1-0.5,0.3-0.6,0.3-1.1c0.2,0,0.3,1.5,0.4,0.4C5.4,411.7,5.2,412.1,5.2,412.5z M7.4,426.1
		c-0.4-0.3-0.7-0.9-0.7-2.1c0.4,0.2,0.2,1.1,0.7,1.4C7.4,425.6,7.4,425.8,7.4,426.1z M6.1,469.3c-0.2-0.1-0.1-0.9-0.1-1.4
		c0.1,0.2,0.4,0.6,0.4,0c0.2,0.1,0.1,0.9,0.1,1.4C6.3,469.4,6.1,468.7,6.1,469.3z M7.9,476.4c-0.2-0.1,0.1-0.6-0.1-0.7
		c0-0.6,0.8-1,0.3-1.8c-0.3-0.7,0.5,0.3,0.7-0.4c-0.2-0.4-0.1-0.9,0-0.4c0.2,0.1,0.1-0.6,0.2-1c0.1,0,0.1-0.1,0.2-0.1c0,0,0,0,0.1,0
		c0,0,0,0,0-0.1c0,0,0.1-0.1,0.1-0.1c0-0.6,0.1-1,0.2-1.4c0.1,0,0.1,0.1,0.2,0.2c0.1,0.7,0,1.3,0,1.8c-0.3,0.3-0.6,0.9-0.4,0.9
		c0.1-0.2,0.2-0.1,0.3,0c-0.1,0.5-0.2,1-0.3,1.6C8.5,475.5,8.3,475.2,7.9,476.4z M9.9,476.4c0,0.9-0.3-0.5-0.6,0
		c-0.2-0.1,0.4-1.2,0.7-1.1C10.2,475.9,9.5,476.2,9.9,476.4z M640.1,508.5c0.3,0,0.6,0,0.9,0c-0.3,0.5-1.1,0.8-2.6,0.8
		C638.7,508.9,639.7,509.1,640.1,508.5z M737,174.5c0.5,0.3,0.2,1,0.2,2c-0.3,0.1-0.3-0.5-0.6-0.4C736.6,175.2,737,175.3,737,174.5z
		 M566.3,499.8c0.5,0.2,0.1,0.3-0.3,0.3C566,500,566.1,499.9,566.3,499.8z M566.4,499.8C566.4,499.8,566.4,499.8,566.4,499.8
		c0.1,0,0.2,0,0.2,0C566.5,499.8,566.5,499.8,566.4,499.8z M568.3,500c1.5,0,3-0.3,3.8,0.3C570.8,500.2,569.5,500.1,568.3,500z
		 M591.1,501.6c0,0,0.1,0.1,0.5,0.1c-0.1,0.1-0.3,0.1-0.5,0.1C591.1,501.8,591.1,501.7,591.1,501.6z M591.1,501.6c0-0.1,0-0.2,0-0.3
		c0.1,0,0.1-0.1,0.1-0.1C592.1,501.2,591.1,501.5,591.1,501.6z M586.3,501.8c-0.9-0.1-0.8,0.3-1.8,0.2c-0.6-0.4-1.4-0.4-2.1-0.4
		c0.8-0.4,2.3-0.6,4-0.6c-0.4,0.3-0.7,0.6-1.5,0.7C585.8,501.6,586,501.3,586.3,501.8z M590.7,502.2
		C590.7,502.2,590.7,502.2,590.7,502.2C590.7,502.2,590.7,502.2,590.7,502.2C590.7,502.2,590.7,502.2,590.7,502.2z M563.5,508.6
		c0.9,0,0.8,0.4,1.7,0.5c-0.3,0.5-1.1,0.2-2.1,0.2C563,509,563.6,508.9,563.5,508.6z M563,507.3c0-0.2,0-0.3,0-0.5
		c0.7,0,1.6,0.1,1.7-0.2c0.5,0,0.2,0.2,0,0.2c-0.1,0.2,0.1,0.3,0.4,0.3C564.8,507.3,564.4,507.2,563,507.3z M561.3,507.1
		c-0.9,0-0.1-0.7-1.3-0.7c0.2-0.3,1.3-0.1,0.9-0.7c1.1,0,1.3,0.3,1.7,0.5C563.1,506.9,561,506.6,561.3,507.1z M561.3,499.9
		c-0.2,0.4-2.1,0.1-3,0.2c0-0.2,0.5-0.3,1.1-0.3h0.8C560.7,499.8,561.1,499.8,561.3,499.9z M525.1,501.7c-0.9-0.2,0.4-0.4-0.1-0.6
		c0.6,0,1.3,0,2,0c0.1-0.1,0.2-0.2,0.4-0.3c1.4,0.2,2.4,0.7,0.3,0.9c0.1-0.2,0.8-0.1,0.9-0.3C527.7,501,526.9,502,525.1,501.7z
		 M144.2,505.3c-0.2,0.2-0.6,0.4-1.2,0.5c-0.4,0-0.8,0-1.2,0c0.3-0.4-0.9-0.7-2.3-0.7c-0.1,0-0.2,0-0.2,0.1c0-0.2,0-0.3-0.4-0.4
		c0.3-0.3,0.8-0.4,1.4-0.5c0.4,0.1,0.9,0.1,1.3,0.2c0-0.1,0.1-0.2,0.1-0.2c1.3,0.1,2.5,0.4,2.6,1c0,0,0,0-0.1,0
		C144.2,505.4,144.2,505.4,144.2,505.3z M6.5,341.1c0.2,0,0.3,0,0.3,0.3c-0.1,0.5-0.4,0.2-0.6,0.4C6.3,341.6,6.4,341.3,6.5,341.1z
		 M6.8,336.4c0-0.1,0-0.1,0-0.2C6.8,336.3,6.8,336.4,6.8,336.4z M6.8,335.7c-0.8,0.4-0.2,1.1-1,1.1c0.2-1,0.2-1.9,0.3-2.8
		c0.4-0.1,0-0.7,0.8-1c0,0.1,0,0.1,0,0.2C6.7,334,6.8,334.9,6.8,335.7z M5.8,353.3c0,0,0-0.1,0-0.1C5.8,353.2,5.8,353.2,5.8,353.3
		C5.8,353.3,5.8,353.3,5.8,353.3z M6.1,353.4c0.2,0.1,0.5,0,0.5,0.7C6.4,353.9,6.2,353.6,6.1,353.4z M7.4,326.4
		c-0.1-0.7-0.1-1.6-0.1-2.3c0-0.1,0.1-0.3,0.1-0.4c0,0,0,0-0.1,0c0-0.2,0-0.3,0-0.5c0.1,1.2,0.2,2.2,0.5,2.6
		C7.7,325.9,7.6,326.1,7.4,326.4z M147.7,10.4c0,0.2,0,0.3,0,0.5c-0.5,0-1.3-0.1-1.4,0.2c-0.4,0-0.2-0.2,0-0.2
		c0.1-0.2-0.1-0.3-0.3-0.3C146.3,10.3,146.6,10.5,147.7,10.4z M146,8.7c0.2-0.5,0.9-0.2,1.7-0.2c0,0.3-0.4,0.3-0.3,0.6
		C146.7,9.1,146.7,8.7,146,8.7z M149.1,10.5c0.7,0,0.1,0.7,1,0.6c-0.1,0.2-1.1,0.1-0.7,0.6c-0.9,0-1.1-0.2-1.4-0.5
		C147.7,10.7,149.3,11,149.1,10.5z M176.1,15.6c-0.1,0.2-0.7,0.1-0.7,0.3c0.7,0.4,1.3-0.5,2.7-0.3c0.8,0.2-0.6,0.5,0.3,0.6
		c-0.1,0.1-0.2,0.1-0.3,0.2h-1.9C175.2,16.2,174.5,15.7,176.1,15.6z M561.1,14c1.4-0.2,2.1,0.7,2.7,0.3c0-0.2-0.6-0.1-0.7-0.3
		c3,0.2-1.7,1.5-2.4,0.6C561.8,14.5,560.3,14.2,561.1,14z M591.3,9.7c-0.3,0.2-0.5,0.5-1.4,0.5c0.4-0.5-0.5-0.4-0.7-0.6
		c0.9,0.1,0.3-0.6,1-0.6C590,9.5,591.7,9.1,591.3,9.7z M590.3,15.7c-0.5,0.2-2.4,0.3-2.4-0.2C588.6,15.7,590.1,15.4,590.3,15.7z
		 M593.4,8.9c-0.3,0-0.4,0.1-0.3,0.3c0.2,0,0.4,0.1,0,0.2c-0.1-0.2-0.8-0.1-1.4-0.2c0-0.2,0-0.3,0-0.5C592.7,8.9,593,8.8,593.4,8.9z
		 M591.6,6.9c0.8,0,1.5-0.3,1.7,0.2c-0.7,0-0.7,0.4-1.4,0.5C592.1,7.2,591.6,7.2,591.6,6.9z M734.6,178.9c0,0-0.1,0-0.1,0
		c-0.1-0.3-0.1-0.7-0.3-0.6c0.2-0.1,0.6,0.1,0.6-0.5c-0.2-0.2-0.3-0.5-0.4-0.9c0,0,0.1-0.1,0.1-0.1c0.6-0.4,0.2,1.5,0.8,1.2
		C735.2,178.7,734.7,178.2,734.6,178.9z M495.8,501c-0.9-0.1,0.8-0.7-0.7-0.8c0,0,0,0,0,0c0.1-0.2,0.2-0.3,0.4-0.5h4.1
		c0.1,0.2,0.1,0.3,0.2,0.5c-2,0-1.5,0.7-3.4,0.9C496.8,500.6,495.9,500.6,495.8,501z M8.7,331c0,0.2,0,0.4,0,0.6
		c0,0.1-0.1,0.1-0.2,0.2c0.1-0.9-0.3-0.8-0.1-1.8c0.2-0.3,0.2-0.6,0.3-0.9c0,0.5,0,1,0,1.5c0-0.1,0-0.2,0-0.2
		C8.6,330.6,8.6,330.9,8.7,331z M11.3,137.9c0-0.5,0.1-0.8,0.2-1c0.2,0,0.3,0.1,0.3,0.3c0.2-0.1,0.3-0.1,0.5-0.1v2.4
		c-0.2,0-0.3,0.1-0.5,0.1c-0.1-0.3-0.2-0.4-0.4-0.3C11.4,138.6,11.9,137.8,11.3,137.9z M10.4,31.4c-0.3,0-0.2,1-0.6,0.7
		c0.1-0.5,0.1-1.4,0.2-2.2c0.1-0.1,0.1-0.3,0.2-0.4c0.1,0.3,0.2,0.6,0.3,1C10.3,30.8,10.2,31.2,10.4,31.4c0-0.3,0.1-0.3,0.2-0.3
		c0.1,0.7,0.2,1.3,0.4,1.3c0.1,1.7-0.6,0.5-0.6,1.1c-0.4-0.1,0.2-1,0.1-1.4C10.5,31.8,10.4,31.8,10.4,31.4z M362.9,13.2
		C362.9,13.2,362.9,13.2,362.9,13.2c1.5-0.1,2,0.2,3.4,0.1c-0.3,0.2-0.7,0.4-1,0.5c-0.9,0-1.8-0.1-2.4-0.2
		C362.8,13.4,362.8,13.3,362.9,13.2z M366.6,13.3c1.4-0.6,3.6-0.7,5.6-0.4c0.1,0.1,0.2,0.2,0.6,0.3c-1.4,0.2-1.1-0.3-2.1-0.3
		c-0.6,0.5-2.3,0.8-4,0.8C366.7,13.6,366.7,13.5,366.6,13.3z M375.5,13.9c-0.1,0-0.2,0-0.2,0c0,0,0-0.1,0-0.1
		C375.3,13.8,375.4,13.8,375.5,13.9z M731,139.6c0.1-0.6,0.3,0.3,0.3-0.4c0.3,0.1,0.3,1,0.3,2c-0.5-0.4-0.3,0-0.9,0
		C730.7,140.8,731.3,139.8,731,139.6z M729.9,150.9c0-0.3-0.1-0.4-0.2-0.4c0-1.2,0.4,1,0.5-0.4c0.3,0.3,0,0.7,0,1.2
		c0.3,0,0.3-0.5,0.6-0.4c0.1,0.9,0.2,1.8,0.6,2c0.1,2.2-0.5,2.8-0.2,5.1c0,0,0,0,0,0c-0.1-0.1-0.2,0-0.2,0.2c0,0,0,0.1-0.1,0.2
		c0,0,0,0,0,0c0,0.2,0,0.5,0,0.7c0,0,0,0,0,0.1C729.3,159.6,729.2,154.3,729.9,150.9z M10.6,297.6c0,0.1-0.1,0.3-0.1,0.5
		c0-0.2,0-0.4,0.1-0.6C10.6,297.5,10.6,297.6,10.6,297.6z M12.2,299.2c-0.1,0-0.1,0-0.1,0.1c-0.1-0.1-0.2-0.3-0.3-0.5
		C11.9,299,12,299.3,12.2,299.2z M12.3,222.8c0,0-0.1,0-0.1,0c0-0.2,0.1-0.3,0.1-0.3V222.8z M12.3,382.1
		C12.3,382.1,12.3,382.1,12.3,382.1c-0.1-0.5,0-0.9,0-1.3V382.1z M12.2,392.8c0.1,0.1,0.1,0.1,0.2,0.1v1.6
		C12.2,394.3,12.2,393.6,12.2,392.8z M10.8,127.4c0.1,0.9,0.2,1.7,0.5,2.3c0.5,0,0.8-0.3,1.1-0.3v2.3c-0.5,0-0.7-1-1.1-1.7
		c0.1,0.8,0,1.3-0.1,1.8C10.8,130.7,10.7,129.1,10.8,127.4z M11.3,133.8c0.1,0.1,0.2,0.3,0.3,0.6c-0.2,0.1-0.3,0.5-0.3,1.1
		c0.5-0.1,0.2,0.5,0.2,1.1c-0.1-0.2-0.2-0.3-0.3-0.4C11.1,135.1,11.2,134.5,11.3,133.8z M12.3,224.2v1.4c-0.1,0-0.1,0.2-0.1,0.3
		c-0.2-0.3,0-0.6-0.2-1.7C12.1,224.2,12.2,224.2,12.3,224.2z M11,288c-0.5-0.2-0.7-0.9-0.8-2.1c0.4,0.2,0.2,1.1,0.8,1.4
		C11,287.6,11,287.8,11,288z M10.5,298.5c0.2,0.3,0,1.7,0.5,1.4c0-0.3-0.1-0.8-0.1-1.3c0,0,0,0.1,0.1,0.1c0.2-0.2,0.4-0.2,0.6-0.1
		c-0.2,0.9-0.6,1.6-1,2c0-0.1,0-0.2-0.1-0.2C10.5,299.7,10.6,299.1,10.5,298.5z M9.3,328.1c-0.1-0.1-0.2-0.2-0.3-0.3
		c-0.2,0.2-0.3,0.5-0.4,0.9c0.1-1.3-0.4-2.8,0.4-3.6c0.1,0.2,0.2,0.3,0.3,0.3C9.3,326.3,9.3,327.2,9.3,328.1z M9.8,321.5
		C9.8,321.5,9.8,321.5,9.8,321.5c0-1.1,0.1-2.3,0.1-3.5c0.2-0.9,0.3-2,0.5-2.9C10.1,317,10,319.2,9.8,321.5
		C9.8,321.5,9.8,321.5,9.8,321.5z M728.7,180.7c-0.4,0-0.4-2.2-0.2-2.7C728.9,178.2,728.6,179.9,728.7,180.7z M728.6,186
		c-0.1,0.3-0.1,0.7-0.1,1.1c-0.1,0-0.2,0-0.3,0C728.2,186.2,728.4,186,728.6,186z M728.4,173.3c0.6-1.8-0.5-4.6,0.8-5.5
		c0,2.1,0.2,3.7,0.3,4.7C729.1,172.9,728.8,174.3,728.4,173.3z M144.1,16.4c0.1,0,0.2,0,0.2,0c0,0,0,0,0,0H144.1z M11.1,458.5
		c0,0.2,0.1,0.3,0.2,0.5c-0.1,0-0.1,0-0.2,0C11.1,458.8,11.1,458.6,11.1,458.5z M397.4,505.5c0.3,0,0.6,0.1,0.9,0.1
		c-0.3,0-0.7-0.1-1-0.1C397.3,505.5,397.4,505.5,397.4,505.5z M402.2,503.6c-0.3,0.2-0.6,0-1.7,0.2c0-0.2,0-0.3,0-0.5
		c0.5,0,1.3,0.1,1.4-0.2c0.4,0,0.2,0.2,0,0.2C401.8,503.5,402,503.6,402.2,503.6z M400.8,505c0.7,0,0.7,0.4,1.4,0.5
		c-0.2,0.5-0.9,0.2-1.7,0.2C400.5,505.4,400.9,505.3,400.8,505z M400.2,502.9c0.4,0.6-1.3,0.2-1,0.8c-0.7,0-0.1-0.7-1-0.6
		c0.1-0.2,1-0.1,0.7-0.6c0.2,0,0.5,0,0.7,0C399.8,502.6,400,502.7,400.2,502.9z M400,505.9c0,0.1-0.1,0.2-0.4,0.2
		c-0.1-0.2-0.5-0.4-0.9-0.5C399.1,505.8,399.6,505.9,400,505.9z M730.2,211.3c-0.2,1-0.5-0.7-0.6,0.4c-0.9-0.7,0.4-6.2,0.6-2.7
		c-0.2-0.1-0.1-0.8-0.3-0.8C729.5,209,730.4,209.7,730.2,211.3z M734.9,176.4c0-0.6,0.1-1.5-0.2-1.6c0-0.4,0.2-0.2,0.2,0
		c0.2,0.1,0.3-0.1,0.3-0.4c0.2,0.4,0,0.7,0.2,2C735.2,176.4,735.1,176.4,734.9,176.4z M736.4,104.7c0.5,0.3,0.7,1,0.8,2.4
		c-0.4-0.2-0.2-1.2-0.8-1.6C736.4,105.2,736.4,104.9,736.4,104.7z M733.2,112.9c0.1-0.6,0.2,0.2,0.5,0c-0.1,0.3-0.2,0.9-0.2,1.6
		c-0.1,0-0.2,0-0.3,0c-0.1-0.3-0.2-0.6-0.2-1.2C733.4,113.4,733.4,112.9,733.2,112.9z M733.2,70.9c-0.2,1.9-0.5,1.7-0.2,2.7
		C732.4,74.9,732.4,70.7,733.2,70.9z M732.8,66.6c-0.5-0.3-0.5,0.6-0.2,0.8c-0.1,1-0.7-0.9-0.8,0.8c0,0.8,0.5,0.2,0.8,0.4
		c0.1,1.2-0.3,1.3-0.8,1.2c0.1-1.8-0.7-1.2-0.8-0.4c-0.3-0.7,0.3-4.7-0.2-5.9c0.2-0.7,0.6-0.4,0.9-0.8
		C731.9,65,732.5,64.4,732.8,66.6z M714.4,16.2c0,0.1,0,0.1,0,0.2h-1C713.5,16.3,713.8,16.2,714.4,16.2z M702.7,10.3
		c-0.2-0.4-0.5,0.2-1,0.2c-0.1-0.4,1-1,1-0.8C702.2,10.1,703.6,10.3,702.7,10.3z M698.6,9.5c-0.5-0.5,1.2-0.1,1-0.5
		c-0.5-0.1-0.1-0.2,0.3,0c0.6-0.3-0.3-1.1,0.3-0.8C701,8.9,701.4,8,702,8c0.1,0.3,0.6-0.1,0.7,0.2c-1.2,0.5-0.9,0.7-1.4,1.5
		c-1.4,0.1-2,0.7-4.1,0.5c-0.5-0.5,0.1-0.6-0.3-0.9C697.9,9.1,697.5,9.7,698.6,9.5z M694.5,6.1c0.5,0,1.3-0.1,1.4,0.2
		c-0.6,0.1,0.1,0.2,0,0.5c-0.5,0-1.3,0.1-1.4-0.2C695,6.6,694.7,6.3,694.5,6.1z M685.9,11.6c0.2,0.2-0.4,0.8,0.3,0.8
		c1.5,0-0.2-0.6,0.7-0.8c0.1,0.4,1,0.4,0.7-0.2c1.9,0.3,1.4,0.9,3.4,0.9c-0.3,0.3-0.1,0.8-0.7,0.9c-1-0.5-4.5,0.1-5.1-0.2
		c0.7-0.1,1.2-0.9-0.3-0.8C684.8,11.9,684.8,11.5,685.9,11.6z M681.5,11.1c0.9,0.4,0.8,0,2.4-0.2C684,11.8,680.4,11.8,681.5,11.1z
		 M645.8,10.6c0.6,0,1.1,0,1.4-0.2c-0.1,0.3,0.5,0.4,0,0.5c0-0.2-0.4-0.1-0.3,0.2c-0.5,0-0.8-0.1-1-0.2
		C645.8,10.8,645.8,10.7,645.8,10.6z M641,4.6c-0.1,0.4,0.1,0.6,0.3,0.8c-0.4,0-0.8,0.3-1,0c1.1-0.2-0.4-0.3-0.3-0.5
		C640.5,4.9,640.6,4.7,641,4.6z M622.5,12.6c0.8,0,1.7,0,1.7,0.3c-0.6,0,0.2,0.3-0.3,0.3c-0.2-0.4-1,0.2-1.4,0.3
		C622.5,13,622.9,13.1,622.5,12.6z M606.7,13.3c0.5,0,1.2,0,1-0.3c2,0.3,2.5-0.3,4.5-0.2c0.1,0.4,0.9,0.5,1.7,0.6
		c0.1,0.3-0.4,0.3-0.3,0.6c0.4,0,0.8-0.3,1,0c-1.2,0,0.7,0.5-0.3,0.5c0-0.1-0.1-0.2-0.3-0.2C610.9,15.1,606.3,15,606.7,13.3z
		 M599.2,15.1c-0.8,1.3-3.2,0.1-4.8,0.8c-0.9-0.4,0.4-0.7,0.7-1.1C595.9,14.9,597.3,15.1,599.2,15.1z M590.6,5.5
		c-0.9-0.5,2.6-1,3.8-0.6c-0.6,0,0.1,0.7,1,0.5c0.4,1-2.1,0.6-2.7,0.8c0.4,0,0.8,0,0.7,0.3c-1.9,0-2.9,0.3-4.8,0.6
		c-0.6-0.4-1.3-0.7-1.4-1.2C588.2,5.6,589.6,4.9,590.6,5.5z M586.5,5.7c0-0.1,0.1-0.2,0.3-0.2c0,0.2-0.2,0.3-0.3,0.5
		c0.4,0,0.5,0.2,0.7,0.3c-1.3,0-2-0.1-1.4,0.5c-1.6,0.2-0.7-0.6-1.4-0.8C585.3,6,586.1,5.9,586.5,5.7z M583.1,15.1
		c0.3,0.4,0.6,0.9-0.7,0.9C582.4,15.6,582.2,15.1,583.1,15.1z M547.1,10c2.9-0.4,4-2.4,7.5-2c-0.1-0.6,5.3-0.5,6.2,0.2
		c0.3-0.3,1.6-1,2.1-0.8c-0.3,0-0.4,0.3,0,0.3c1.2,0,1.8-0.3,2.4-0.6c-0.7-0.2-1.6,0.1-1.7-0.6c1.9-0.3,3.3,0,5.1-0.5
		c0,0.9-0.7,0.2-1,1.1c2.4-0.2,4.2,0.4,6.2-0.8c0.8-0.1,0.7,0.3,1.7,0.2c0.1,0.2-0.1,0.6,0.3,0.6c0.6-0.1,0-0.7,0.7-0.8
		c0.5,0.5,1.8,0.6,1.7,0.9c0.3,0,0.7,0,0.7,0.2c-1.2-0.1-1.8,0.1-1,0.5c-2.9-0.1-5,0.6-7.2,0.5c0.4,0.2,0.4,0.5,0.3,0.9
		c-1.6-0.1-0.5,0.6-1,0.6c-0.2-0.3-0.4,0.1-0.7,0.2c-0.7-0.5-1.2-0.1-2.1,0c-0.7-0.3-0.9-0.9-2.1-1.1c0.9,0,1.1,0.3,1.4-0.2
		c-0.8,0.1-0.7-0.3-1.7-0.2c-1.4,0.9-3.7-0.3-4.8,0.8c0.3,0.2,0.5,0.4,0.3,0.8c-3.8-0.2-9.2,0.1-12.7,0.6c1.1-0.4-0.7-0.4-0.7-0.5
		C547.5,10.3,547.3,10.1,547.1,10z M537.4,13.5c2.7-0.4,6.6,0,9,0.5c-1.2,1.3-4.4,2.4-8.8,2C536.3,15.5,537.3,14.5,537.4,13.5z
		 M532.8,12.5c-0.1,0-0.1,0.1-0.1,0.1c0-0.1-0.2-0.3-0.4-0.4C532.6,12.3,532.7,12.4,532.8,12.5z M493.4,15.1c-1.4,0.3-3.3,1-4.3,0.2
		v-0.7C490.7,14,492.9,14.2,493.4,15.1z M477.6,11.8c0.6,0.4,2.4,0.3,3.1,0.6c0.1-1.1,1.6,0,2.4,0c0.2-0.4,0.1-0.5,1.4-0.2
		c0.3-0.4,1-0.6,2.1-0.6c-0.7,0.4,0.4,0.8,1.7,0.8c0.3-0.1,0.6-0.2,0.9-0.3c0.2,0.1,0.4,0.1,0.7,0.2c0,0.8-0.6,1-1.3,1.1
		c-0.4-0.2-1.3-0.4-2-0.5c0,0.2-0.2,0.3-0.5,0.4c-0.5,0-1-0.2-1.6-0.1c0,0,0,0,0,0c-0.9-0.2-1.8-0.3-2.3-0.1c0.5,0,0.5,0.1,0.2,0.2
		c-0.9,0.1-1.9,0.1-2.8,0.2c0,0-0.1,0-0.1,0c0.1-0.8-3-0.3-3.1-1.4C477.3,12.7,476.6,11.7,477.6,11.8z M462.5,12.5
		c0.3,0,0.3-0.2,0.7-0.2c0-0.3-0.9-0.2-0.7-0.6c0.6,0.2,1.7,0,2.7,0.3c-0.9,0.5-3,0.5-3.1,0.9c-1.6,0.1-0.5-0.6-1-0.6
		C461.3,12,462.1,12.5,462.5,12.5z M408.8,8.7c0,0.2-0.2,0.6,0.3,0.6c-0.4,0.3-1,0.5-1.6,0.5c0-0.1,0-0.3,0-0.4
		c-1.2-0.1-2.4-0.2-3.6-0.2c-0.1-0.1-0.2-0.2-0.2-0.4C404.7,7.9,406.9,8.3,408.8,8.7z M330.3,7.1c1.9-0.3,4-0.8,5.1,0.2
		c-0.2,1.1-4.3,1.4-5.5,0.5C330.5,7.7,330.3,7.3,330.3,7.1z M276.5,10.2c0.2,0.4-0.7,0.3-0.7,0.6c0.3,0,0.4,0.1,0.7,0.2
		c0.5,0,1.3-0.5,1.4-0.2c-0.6,0,0.6,0.7-1,0.6c-0.1-0.5-2.2-0.4-3.1-0.9C274.8,10.2,275.9,10.3,276.5,10.2z M249.9,13.8v0.9
		c-0.2-0.2-0.4-0.4-0.4-0.8C249.7,13.9,249.8,13.8,249.9,13.8z M249.9,16.1v0.3h-3.8C246.8,15.8,248.6,15.7,249.9,16.1z M206.9,13.8
		c-0.2,0.2-0.4,0.3-0.4,0.4c0-0.1,0-0.1-0.1-0.1C206.6,14,206.8,13.9,206.9,13.8z M201.9,15.1c0,0.4,0.3,0.9,0.4,1.3H194
		c-0.4-0.2-0.8-0.5-1.1-0.8C195.3,15.1,199.2,14.7,201.9,15.1z M161.1,8.8c-0.1-0.3,1.2-0.5,1.7-0.9c0.7,0,0.1,0.7,0.7,0.8
		c0.5,0,0.3-0.4,0.3-0.6c1,0.1,0.9-0.2,1.7-0.2c2,1.2,3.8,0.6,6.2,0.8c-0.4-0.9-1.1-0.2-1-1.1c1.9,0.4,3.2,0.1,5.1,0.5
		c-0.1,0.7-1,0.5-1.7,0.6c0.6,0.3,1.1,0.6,2.4,0.6c0.4,0,0.3-0.3,0-0.3c0.5-0.3,1.7,0.4,2.1,0.8c0.9-0.7,6.3-0.7,6.2-0.2
		c3.5-0.4,4.6,1.6,7.5,2c-0.2,0.1-0.4,0.3,0,0.3c0,0.1-1.8,0.1-0.7,0.5c-3.5-0.5-8.9-0.8-12.7-0.6c-0.1-0.4,0.1-0.6,0.3-0.8
		c-1.1-1.1-3.4,0.2-4.8-0.8c-1-0.1-0.9,0.2-1.7,0.2c0.3,0.4,0.5,0.2,1.4,0.2c-1.1,0.2-1.3,0.7-2.1,1.1c-0.9-0.1-1.4-0.5-2.1,0
		c-0.3-0.1-0.5-0.4-0.7-0.2c-0.5,0,0.6-0.7-1-0.6c0-0.4-0.1-0.7,0.3-0.9c-2.1,0.1-4.3-0.5-7.2-0.5c0.7-0.3,0.1-0.6-1-0.5
		C160.4,8.8,160.8,8.8,161.1,8.8z M152.9,7.3c0.4,0.2,1.2,0.3,2.1,0.3c-0.6,0.2,0.2,1-1.4,0.8c0.6-0.6,0-0.5-1.4-0.5
		c0.2-0.1,0.3-0.3,0.7-0.3c-0.2-0.1-0.4-0.3-0.3-0.5C152.8,7.1,152.8,7.2,152.9,7.3z M144,7c0.9,0.2,1.7-0.5,1-0.5
		c1.1-0.4,4.7,0.1,3.8,0.6c1-0.6,2.4,0,3.4,0.3c-0.1,0.6-0.8,0.9-1.4,1.2C148.9,8.4,147.9,8,146,8c-0.1-0.3,0.3-0.3,0.7-0.3
		C146.1,7.5,143.5,8,144,7z M125.8,15.6c0-0.3-0.4-0.3-0.3-0.6c0.8-0.1,1.6-0.2,1.7-0.6c1.9-0.1,2.5,0.5,4.5,0.2
		c-0.2,0.3,0.5,0.3,1,0.3c0.4,1.7-4.2,1.8-7.2,1.1c-0.3,0-0.3,0.1-0.3,0.2c-1.1,0,0.9-0.4-0.3-0.5C125,15.3,125.4,15.6,125.8,15.6z
		 M116.9,14.2c-0.4,0.5,0,0.3,0,0.9c-0.3-0.1-1.1-0.7-1.4-0.3c-0.5-0.1,0.3-0.3-0.3-0.3C115.2,14.2,116.1,14.2,116.9,14.2z
		 M98.4,6.2c0.4,0.1,0.5,0.3,1,0.3c0,0.2-1.5,0.3-0.3,0.5c-0.3,0.3-0.6,0-1,0C98.4,6.8,98.5,6.5,98.4,6.2z M92.2,12.1
		c0.3,0.1,0.8,0.2,1.4,0.2c0,0.1,0,0.2,0,0.3c-0.3,0.1-0.6,0.2-1,0.2c0.1-0.3-0.3-0.3-0.3-0.2C91.7,12.5,92.4,12.3,92.2,12.1z
		 M58,12.7c1.1,0.7-2.6,0.7-2.4-0.2C57.2,12.7,57.1,13.1,58,12.7z M51.8,13c-0.3,0.5,0.5,0.5,0.7,0.2c0.9,0.1-0.8,0.7,0.7,0.8
		c0.7,0,0.2-0.5,0.3-0.8c1.1-0.1,1.1,0.3,1,0.8c-1.6-0.1-1,0.7-0.3,0.8c-0.6,0.3-4.1-0.3-5.1,0.2c-0.6-0.2-0.4-0.7-0.7-0.9
		C50.5,13.9,49.9,13.3,51.8,13z M43.6,7.9c0.1-0.2,0.9-0.1,1.4-0.2c-0.2,0.1-0.5,0.4,0,0.5c-0.1,0.2-0.9,0.1-1.4,0.2
		C43.5,8.1,44.2,7.9,43.6,7.9z M37.5,9.6c0.6,0,1,0.9,1.7,0.3c0.7-0.3-0.3,0.5,0.3,0.8c0.4-0.2,0.9-0.1,0.3,0
		c-0.1,0.4,1.6-0.1,1,0.5c1.1,0.1,0.7-0.4,1.7-0.3c-0.5,0.3,0.2,0.5-0.3,0.9c-2.2,0.2-2.7-0.3-4.1-0.5c-0.5-0.8-0.2-1.1-1.4-1.5
		C36.9,9.5,37.4,9.9,37.5,9.6z M36.8,11.3c0.1-0.2,1.1,0.4,1,0.8c-0.5,0.1-0.8-0.6-1-0.2C35.9,11.9,37.2,11.6,36.8,11.3z M35.4,11
		c0.7,0,0.7,0.4,1,0.6c-0.1,0-0.3,0-0.5,0.1c-0.2-0.1-0.4-0.1-0.5-0.1C35.6,11.3,34.4,11.1,35.4,11z M29.6,10c0.4,0.2,1.6,0.2,2.1,0
		c0,0.5,1.1,0.5,1,1.1c1.3-0.3,1.9,0.1,2.7,0.5c-0.1,0-0.1,0.1-0.1,0.1c-1.3,0-2.7,0-2.9,0.5c0.6,0,0.6,1,0,0.9
		c-0.3-0.1-0.6-0.1-1-0.2c-0.1-0.3-0.3-0.7-0.4-1.2h-1.7C29.6,11.4,30.6,10.8,29.6,10z M28,11.8h-0.6C27.7,11.7,27.9,11.7,28,11.8z
		 M9.8,156.6c0.4,0.6,0.2,1.5,0.2,2.4C9.8,158,9.8,157.3,9.8,156.6z M9,219c0.2-0.4,0.3-1.2,0.3-2.1c0.2,0.6,1-0.2,0.8,1.4
		c-0.5-0.6-0.5,0-0.5,1.4c-0.1-0.2-0.3-0.3-0.3-0.7c-0.1,0.2-0.2,0.4-0.5,0.3C8.8,219,8.9,219,9,219z M9.5,225.3
		c-0.2,0.6,0.3,3.2-0.8,2.8c0.2-1-0.4-1.7-0.5-1c-0.4-1.1,0.1-4.8,0.6-3.8c-0.6-1,0-2.5,0.3-3.5c0.6,0.1,0.9,0.8,1.2,1.4
		c-0.3,2-0.6,3-0.6,4.9C9.5,226.1,9.5,225.7,9.5,225.3z M10.4,226c-0.5-0.2-0.2-0.9-0.2-1.7c0.3,0,0.3,0.4,0.6,0.3
		C10.8,225.3,10.4,225.3,10.4,226z M11.1,210.3c-0.3-0.7-0.6-0.2-0.5,1c-0.1,0-0.1-0.4-0.2-0.7c-0.3,0.1-0.5-1.3-0.9-1.7
		c0-0.7,0.7-0.1,0.8-0.7c0-0.5-0.4-0.3-0.6-0.3c0.1-1-0.2-0.9-0.2-1.7c1.1-2,0.5-3.9,0.8-6.3c-0.9,0.4-0.2,1.1-1.1,1
		c0.4-1.9,0.1-3.3,0.5-5.2c0.7,0.1,0.4,1,0.6,1.7c0.3-0.6,0.6-1.2,0.6-2.4c0-0.4-0.3-0.4-0.3,0c-0.3-0.5,0.4-1.8,0.8-2.1
		c-0.3-0.4-0.5-1.7-0.5-3c0.2,0,0.4,0,0.3-0.2c-0.5-0.2,0-0.6-0.3-1.1c0.5-0.1,0.6-0.7,1.3-0.5c-0.3,1-0.2,1.3-0.3,2.4
		c-1.3,0.4-0.7,2.1-0.1,2.9c0-0.2,0.2,0,0.3,0.2c-0.1,1.1,0.3,2.6-0.3,3.6c-0.1,1,0.2,0.9,0.2,1.7c0.4-0.3,0.2-0.5,0.2-1.4
		c0,0.2,0.1,0.4,0.1,0.6v5.3c-0.3,0-0.6,0-0.8-0.4C11.7,205.1,11.1,207.4,11.1,210.3z M5.9,361.7c-0.2,0.7,0.3,3.3-0.7,2.9
		c0.2-1-0.4-1.7-0.4-1.1c-0.2-0.6-0.2-1.9,0-2.9c0,0,0,0,0,0.1c0-0.7,0.6,0.1,0.4,1.1c1,0.4,0.6-2.2,0.7-2.9c0,0.4,0,0.8,0.3,0.7
		c0-1.1,0.1-1.9,0.3-2.8c0.1,0.2,0.2,0.4,0.3,0.6c0,0.2,0,0.3-0.1,0.4c0,0-0.1,0-0.1,0c0,0.5-0.1,1-0.1,1.3c-0.2,1.1-0.3,2-0.3,3.3
		C6,362.6,5.9,362.2,5.9,361.7z M6.8,362.4c-0.5-0.2-0.2-1-0.1-1.8c0.3,0,0.3,0.4,0.6,0.4C7.2,361.7,6.9,361.7,6.8,362.4z M8,338.9
		c0.1,2.2-0.5,4.5-0.4,7.5c-0.3-0.8-0.6-0.2-0.4,1.1C7,347.4,7,347,7,346.7c-0.3,0.1-0.5-1.3-0.9-1.8c0-0.7,0.7-0.1,0.7-0.7
		c0-0.5-0.4-0.3-0.6-0.4c0.1-1-0.2-0.9-0.1-1.8c0,0,0,0,0,0c0,0,0,0.1,0,0.1c0.4,0.5,0.6,1.8,0.9,1.8c0,0.3,0,0.7,0.1,0.7
		c-0.1-1.2,0.1-1.8,0.4-1.1c-0.1-3,0.6-5.3,0.4-7.5c0.2,0.4,0.5,0.4,0.9,0.4c-0.1-1.7,0.6-0.5,0.6-1.1c-0.2-0.1-0.1-0.2,0-0.4
		c0.1,0.1,0.1,0.2,0.2,0.3c-0.1,0.8-0.4,1.3-0.1,2c0,0.1,0,0.3,0,0.4c-0.1,0.2-0.2,0.3,0,0.5c0,0.6-0.7-0.6-0.6,1.1
		C8.5,339.3,8.2,339.3,8,338.9z M8.9,362.1c-0.2-0.1-0.3,0.1-0.3,0.4c-0.2-0.3,0-0.7-0.1-1.8c0.1,0,0.3,0,0.4,0
		c0,0.6-0.1,1.4,0.1,1.4C9,362.5,8.9,362.3,8.9,362.1z M9.3,360.3c-0.5,0.3-0.3-0.8-0.5-1c0,0,0.1,0,0.1,0c0,0.2,0.1,0.4,0.1,0
		c-0.1,0-0.1-0.2-0.1-0.5c0.2-0.1,0.3-0.1,0.3-0.6c0.2,0.2,0.1,1.1,0.6,0.7C9.8,359.8,9.6,360,9.3,360.3z M10.5,418.6
		c-0.1,0.5-0.2-0.1-0.4,0c0.1-0.3,0.2-0.8,0.1-1.4c0.1,0,0.2,0,0.3,0c0.1,0.3,0.2,0.6,0.1,1.1C10.4,418.1,10.4,418.5,10.5,418.6z
		 M10.5,456.8c0.2-1.7,0.5-1.6,0.1-2.5c0.4-0.6,0.5,0.1,0.5,0.9c-0.1,0.2-0.1,0.4-0.1,0.7C11,456.4,10.8,456.9,10.5,456.8z
		 M11.9,464.3c0-2.1-0.6-1.6-0.9-3.6c0.5,0.3,0.5-0.6,0.1-0.7c0.1-0.7,0.4,0,0.6-0.1c0.1,0.3,0.2,0.7,0.2,1.4
		c0.1-0.2,0.3-0.2,0.5-0.3v2.4c0,0-0.1,0-0.1,0v0.6C12.1,464.1,12,464.2,11.9,464.3z M171.4,505.8c-0.2,0-0.5-0.1-0.7-0.1
		c0.1-0.1,0.3-0.2,0.5-0.3C171.4,505.5,171.6,505.6,171.4,505.8z M172.3,505.2c0.2,0,0.4,0,0.7,0c0,0,0.1,0,0.2,0
		C173,505.4,172.7,505.3,172.3,505.2z M238.3,509.1c0-0.3,0.2-0.6-0.4-0.7c1.5-1,6.6-0.7,6.8,0.5
		C243.3,509.9,240.6,509.4,238.3,509.1z M398.2,507.3c0.2,0,0.4,0,0.6,0C398.6,507.3,398.4,507.3,398.2,507.3z M399.3,507.2
		c1.2,0,1.4,0,3.4-0.1c-0.3,0.2-0.1,0.3,0.3,0.3c-0.1,0.1-0.1,0.2,0.2,0.2C402.3,508,399.5,507.7,399.3,507.2z M414.6,507.6
		c0.2-0.1,0.4-0.1,0.7-0.2c0.5,0.1,0.9,0.1,1.4,0.2C415.8,507.6,415.1,507.6,414.6,507.6z M436.5,507.8c0,0.4,0.7,0.5-0.3,0.6
		c-2.4-0.3-5.4-0.7-8-1.1c-1.4-0.5-3.7-0.5-5.2-1c0,1-6-0.3-6.2,1c-0.8,0-1.7,0-2.5,0c-0.1-0.3-0.5-0.4-0.7-0.6c-0.1,0-0.1,0-0.2,0
		c0,0,0,0,0-0.1c-0.6,0-1.1,0-1.6,0c-1.5-0.2-2.4-0.8-3.3-1.2c0.6,0,1.1,0,1.7,0c0.1-0.6-0.5,0-1.4-0.2c0.4-0.2,0.4-0.4,0-0.6
		c0.8,0.4,1.5-0.1,2.7,0c0.8,0.3,1.1,1.5,2.4,1.1c-0.4-0.1-0.8-0.2-1-0.3c1.8,0,0.3,0,0.3-0.5c1.3,0.2,0.7-0.4,1.7-0.3
		c0.8,0.8,2.9,1,4.1,1.5c0.7-0.2,2.4-0.2,4.2-0.4c0.1,0.1,0.2,0.2,0.2,0.3c0.2-0.2,0.6-0.3,1-0.4c0.6-0.1,1.2-0.1,1.7-0.2
		c0.1,0,0.3,0.1,0.5,0.1c-0.2,0.3,0.7,0.6,1.3,0.7c1.3-1,3-0.3,4.5-0.8c-0.5-0.1-1.1-0.2-1-0.6c1.1-0.1,1.6,0.2,2,0.4
		c-0.4,0.4-1.4,0.5-2.2,0.7c0.3,0.5-0.4,0.6-0.4,1c2.1,0.4,5.3,0.5,8.2,0.5c0,0.1,0,0.1-0.1,0.1c-0.7,0-0.6,0.3-1,0.3
		C438.2,507.7,437.1,507.8,436.5,507.8z M449.9,508c-0.4-0.1-0.5-0.3-1-0.3c0-0.2,1.5-0.3,0.3-0.5c0.3-0.3,0.6,0,1,0
		C449.9,507.4,449.8,507.6,449.9,508z M461.2,505.6c0.2-0.4,1-0.2,1.4-0.8c0.2,0,0.5,0,0.7,0C463,505.3,462.3,505.6,461.2,505.6z
		 M483.8,506.3c-0.8,0-1.6,0-2.4,0c0.3-0.4-0.7-0.3-0.7-0.6c-2.9,0.2-5-0.4-7.2-0.3c0.3-0.2,1.7,0,1.4-0.5c-0.8,0.1-3.8,0-1.7,0.5
		c-2-0.2-2.5-0.2-4.1-0.6c-0.1,0.2,0.1,0.4-0.3,0.5c-0.4-0.7-2.5-0.5-3.4-0.6c0-0.2,0.6-0.1,0.7-0.3c-0.8,0-1.5,0-2,0
		c0.7,0,1.4-0.1,2-0.2c0.1-0.3-0.3-0.4,0-0.5c0.4-0.3,2.4,0.2,1.9,0.2c2,0.1,3.6-0.3,5.5-0.2c2.7,0.2,5.4,1.5,8.4,1.5
		c1.6,0,2.9-0.4,4.5-0.2c0,0.5,0.6,0.2,1.3,0.5c-0.2-0.7,1-0.5,1.4-0.7c0.2,0.2,0.4,0.3,0.5,0.6c0.3-0.2,0.9-0.4,1.4-0.5
		c0.2,0.1,0.3,0.2,0.4,0.3c-0.7,0.1-1,0.3-1.2,0.6c-0.4-0.1-0.7-0.1-1-0.2C489.3,506.3,484,505.1,483.8,506.3z M546.4,509
		c0.1,0.3-1.5,0.5-2.1,1c-0.9,0-0.1-0.7-0.9-0.8c-0.6,0.1-0.4,0.4-0.4,0.7c-1.2-0.1-1.1,0.2-2.1,0.2c-2.4-1.2-4.7-0.6-7.7-0.8
		c0.5,1,1.3,0.2,1.3,1.1c-2.3-0.4-4-0.1-6.4-0.5c0.2-0.7,1.3-0.5,2.1-0.7c-0.7-0.3-1.4-0.7-3-0.7c-0.5,0-0.4,0.3,0,0.3
		c-0.6,0.3-2.2-0.5-2.6-0.8c-1.1,0.7-7.8,0.8-7.7,0.2c-4,0.3-5.5-1.3-8.4-2c0.6,0.1,1.1,0.1,1.6-0.1c-0.4,0-0.8-0.3-0.3-0.3
		c0.1,0.3,2.1,0,1,0.5c3,0.2,6.9,0.2,7.4-0.4c2.1,0.1,4.2,0.1,6,0c0.1,0.4-0.1,0.6-0.4,0.8c1.4,1.2,4.2-0.2,6,0.8
		c1.2,0.1,1.1-0.2,2.1-0.2c-0.4-0.5-0.6-0.2-1.7-0.2c1.4-0.2,1.6-0.8,2.6-1.1c1.1,0.2,1.7,0.5,2.6,0c0.4,0.1,0.6,0.5,0.9,0.2
		c0.7,0-0.7,0.8,1.3,0.7c0.1,0.4,0.1,0.8-0.4,1c2.7-0.1,5.4,0.6,8.9,0.5c-0.9,0.3-0.2,0.6,1.3,0.5
		C547.3,508.9,546.8,508.9,546.4,509z M552.4,500.6c-1,0-0.9-0.4-0.9-0.8h0.9C552.9,500,552.6,500.3,552.4,500.6z M556.6,510.6
		c-0.5-0.2-1.5-0.3-2.6-0.3c0.8-0.2-0.2-1.1,1.7-0.8c-0.8,0.6,0,0.5,1.7,0.5c-0.2,0.1-0.4,0.3-0.9,0.3c0.2,0.1,0.4,0.3,0.4,0.5
		C556.7,510.8,556.7,510.7,556.6,510.6z M567.7,510.9c-1.2-0.2-2.1,0.5-1.3,0.5c-1.4,0.4-5.8-0.1-4.7-0.7c-1.3,0.6-3,0-4.3-0.3
		c0.1-0.6,1-0.9,1.7-1.3c2.4,0.3,3.6,0.7,6,0.7c0.2,0.3-0.3,0.3-0.9,0.3C565.1,510.3,568.3,509.8,567.7,510.9z M601.4,503.2
		c0.5-0.5,0-0.4,0-1c0.4,0.1,1.4,0.7,1.7,0.3c0.7,0.1-0.4,0.3,0.4,0.3C603.4,503.2,602.4,503.2,601.4,503.2z M624.4,511.7
		c-0.6-0.1-0.7-0.3-1.3-0.3c-0.1-0.2,1.8-0.3,0.4-0.5c0.3-0.3,0.8,0,1.3,0C624.4,511.1,624.2,511.4,624.4,511.7z M632,505.5
		c-0.4-0.1-1-0.2-1.7-0.2c0-0.1,0-0.2,0-0.3c0.3-0.1,0.7-0.2,1.3-0.2c-0.1,0.3,0.4,0.3,0.4,0.2C632.7,505.1,631.9,505.2,632,505.5z
		 M674.6,504.9c-1.3-0.8,3.2-0.8,3,0.2C675.6,504.8,675.7,504.4,674.6,504.9z M682.3,504.5c0.4-0.6-0.7-0.6-0.9-0.2
		c-1.1-0.1,1-0.8-0.9-0.8c-0.9,0-0.2,0.6-0.4,0.8c-1.3,0.1-1.4-0.4-1.3-0.8c2,0.1,1.3-0.7,0.4-0.8c0.7-0.3,5.1,0.3,6.4-0.2
		c0.7,0.2,0.5,0.7,0.9,1C684,503.6,684.7,504.2,682.3,504.5z M692.5,509.9c-0.1,0.2-1.1,0.1-1.7,0.2c0.3-0.1,0.7-0.4,0-0.5
		c0.1-0.2,1.1-0.1,1.7-0.2C692.6,509.7,691.8,509.9,692.5,509.9z M700.2,508.1c-0.8,0-1.2-0.9-2.1-0.3c-0.8,0.3,0.4-0.5-0.4-0.8
		c-0.5,0.2-1.1,0.1-0.4,0c0.2-0.4-1.9,0.1-1.3-0.5c-1.3-0.1-0.8,0.4-2.1,0.3c0.6-0.3-0.2-0.5,0.4-1c2.7-0.2,3.3,0.4,5.1,0.5
		c0.6,0.9,0.2,1.1,1.7,1.6C700.9,508.2,700.3,507.8,700.2,508.1z M701.1,506.3c-0.1,0.2-1.4-0.4-1.3-0.8c0.6-0.1,1,0.6,1.3,0.2
		C702.2,505.7,700.5,506,701.1,506.3z M736.9,469.5c0.5,0.7,0.6,1.9,0.5,3.1c-0.1-0.6-0.2-1.1-0.5-1.5c-0.1,0-0.2,0.1-0.3,0.2v-1.7
		C736.7,469.6,736.8,469.6,736.9,469.5z M733.9,397.8c0.1,1,0.2,1.9,0.2,2.6C733.6,399.7,733.8,398.8,733.9,397.8z M732.9,433
		c-0.1-0.7-0.2-1.4-0.4-1.9c-0.8,0.1-1.2,0.8-1.5-0.4c-0.2,1.5,0.3,1.2,0.3,2.2c-0.4,0.6-0.7,2.1-0.8,3.7c-0.2-2.6,0.1-6.5,0.8-7.5
		c0-0.1,0-0.1,0-0.2c0.6-0.2,0.8,1,1.2,1.7c-0.1-1.3,0.1-1.9,0.2-3C733,429.1,733.1,431.1,732.9,433z M731.3,419.1
		c0.2,0,0.4-0.1,0.6-0.2c0.1,0.3,0.2,0.4,0.4,0.4c0.1,0.7-0.5,1.7,0.2,1.6c0,0.7-0.1,1-0.3,1.2c0.1,0.4,0.3,0.6,0.5,0.8
		c0.1,1.7-0.3,2.2-0.2,3.9c0,0,0,0,0,0c-0.1-0.2-0.2-0.3-0.2-0.5c0.2-0.2,0.3-0.5,0.3-1.1c-0.6,0.1-0.1-0.8-0.2-1.5
		c-0.2,0-0.3-0.1-0.4-0.4c-0.2,0.1-0.4,0.1-0.6,0.2c-0.2,0.3-0.3,0.6-0.4,1c0-0.4,0-0.5-0.5-0.4
		C730.4,421.6,730.8,420.2,731.3,419.1z M728.9,329.7c0.1,0.3,0.5,1.3,0.2,1.6C728.4,331.3,728.8,330,728.9,329.7z M727.7,314.1
		v-2.4c0.7,0.4,0.3,1.4,0.5,2.5C728,314.2,727.8,314.2,727.7,314.1z M729.5,294.2c-1.5-0.8-0.7-3.4-0.3-5.4
		C730.1,289.4,730.2,292.5,729.5,294.2z M730.7,238.5c-0.9,0.1-1.9,1.2-2.5-0.2c-0.3-5,0.7-8.7,2-10.1
		C730.7,230.9,731.1,235.4,730.7,238.5z M731.6,243.8c0.1,0,0.1-0.1,0.1-0.1c0.1,0.1,0.2,0.3,0.3,0.5
		C731.9,244,731.7,243.8,731.6,243.8z M737.7,208.6c-0.7-0.1-0.4-1.2-0.6-2c-0.1,0.2-0.2,0.3-0.2,0.5c0,0,0-0.1-0.1-0.1
		c0,0.1,0,0.2,0,0.2c-0.1,0.3-0.2,0.7-0.3,1.2c-0.1,0-0.1-0.1-0.2-0.3c0,1.2-0.1,2.3-0.2,3.4c-0.1,0.1-0.1,0.1-0.1,0.2
		c0,0.1,0.1,0.1,0.1,0.2c-0.2,1.4-0.3,2.7-0.3,4c-0.2-0.4-0.5-0.4-0.9-0.4c0.1,1.7-0.6,0.5-0.6,1.1c0.3,0.2-0.1,0.4-0.2,0.7
		c0.5,0.8,0.1,1.3,0,2.2c0.3,0.8,0.9,1,1.1,2.2c0-0.9-0.3-1.2,0.2-1.5c-0.1,0.9,0.3,0.8,0.2,1.9c-0.3,0.5-0.4,1.1-0.4,1.7
		c-0.4,0.9-0.8,1.9-1,3.1c-0.1,0-0.1,0-0.2,0c0,0,0,0,0,0c-0.1-0.1-0.1-0.1-0.2,0.2c-0.1,0-0.1-2-0.5-0.8c0.5-4,0.8-10.2,0.6-14.5
		c0.4-0.1,0.6,0.1,0.8,0.4c1.1-1.2-0.2-3.9,0.8-5.5c0.1-1.1-0.2-1-0.2-2c-0.4,0.3-0.2,0.6-0.2,1.6c-0.2-1.3-0.7-1.5-1.1-2.4
		c0.1-1,0.5-1.6,0-2.4c0.1-0.4,0.4-0.6,0.2-0.8c0-0.6,0.7,0.6,0.6-1.2c0.4-0.1,0.7-0.1,0.9,0.4c-0.1-2.5,0.5-5,0.5-8.2
		c0.3,0.8,0.6,0.2,0.5-1.2c0.1,0,0.1,0.5,0.2,0.8c0.3-0.1,0.5,1.4,0.9,2c0,0.8-0.7,0.1-0.8,0.8c0,0.5,0.4,0.3,0.6,0.4
		c-0.1,1.1,0.2,1,0.2,2c-1.1,2.3-0.5,4.3-0.8,7.1c0.9-0.4,0.2-1.2,1.1-1.2C737.7,204.9,738,206.4,737.7,208.6z M738.4,182.3
		c-0.2,0.5-0.3,1.3-0.3,2.4c-0.2-0.7-1,0.2-0.8-1.6c0.5,0.7,0.5,0,0.5-1.6c0.1,0.2,0.3,0.3,0.3,0.8c0.1-0.2,0.2-0.4,0.5-0.4
		C738.6,182.3,738.5,182.3,738.4,182.3z M738.6,177.6c0.6,1.2,0,2.8-0.3,3.9c-0.6-0.1-0.9-0.9-1.2-1.6c0.3-2.2,0.6-3.4,0.6-5.5
		c0.3-0.1,0.3,0.3,0.3,0.8c0.2-0.7-0.3-3.6,0.8-3.1c-0.2,1.1,0.4,1.9,0.5,1.2C739.6,174.6,739.1,178.6,738.6,177.6z"/>
</g>
</svg>